<?xml version="1.0" encoding="utf-8"?>
<!-- Generator: Adobe Illustrator 21.0.0, SVG Export Plug-In . SVG Version: 6.00 Build 0)  -->
<svg version="1.1" id="图层_1" xmlns="http://www.w3.org/2000/svg" xmlns:xlink="http://www.w3.org/1999/xlink" x="0px" y="0px"
	 viewBox="0 0 480 600" enable-background="new 0 0 480 600" xml:space="preserve">
<path fill="#4B4B4B" d="M366,145.9c2.1,1.1,1.2,3.8,3,5.1c0,2.3,0,4.7,0,7c-1.3,4.3,0.2,8.8-0.9,13.1c-0.1,1.6-0.2,3.2-2.1,3.8
	c-2-3.3-0.1-6.8-0.4-10.2c-0.3-3.1,0-6.3-0.2-9.4c0.4-3-2.2-5-2.8-7.6C363.2,145.9,364.1,145,366,145.9z"/>
<path fill="#ABABAB" d="M368.1,171.1c0.2-4.4-1-8.8,0.9-13.1c0,4.3,0,8.7,0,13C368.7,171,368.4,171,368.1,171.1z"/>
<path fill="#9B9B9B" d="M245,475c-6-1.2-11.3-4.3-17.1-6.2c-4.6-1.9-9.2-3.7-13.7-5.8c-1.1-0.5-2.8-0.5-2.5-2.5
	c1.7-6.7-1-13.2-1.5-19.7c-0.6-7-2.1-13.8-2.6-20.8c-0.3-4,0.6-7.2,5.1-8.5c2.6-0.7,3.4-3.1,3.7-5.5c1-8.4,2.7-16.7,4.3-25.1
	c0.4-2.3-0.7-3.1-2.4-3.6c-4.2-1.5-5.1-4.7-4.8-8.8c0.7-8,2.7-15.7,3.9-23.6c0.4-3-0.4-3.8-3-4.4c-7.7-1.8-8.4-3-7.7-10.9
	c0.7-6.8,2.8-13.4,3.3-20.2c0.1-1.2,0.5-2.3,1.3-3.2c7.7-8.3,12-18.7,18.1-28c1.2-1.8,2.4-3.6,4.7-4.2c3.7,0,4.8-2.2,4.3-5.5
	c-0.6-4.4-1.3-8.8-0.7-13.2c0.3-2.7,1.1-5.1,4.7-3.2c2.1,5.3,0.9,10.8,1,16.2c0,3.6,0.9,6.1,4.3,7.5c2.1,2.2,1.7,4.9,1.7,7.6
	c0,17.4,0.3,34.9,0,52.3c-0.5,23.2,1.5,46.4,1.1,69.7c0,2.3,0.3,4.7-0.6,6.9c-1.1,1.9-3,1.9-4.8,2.1c-2,0.2-4,0.1-6,0.1
	c-7.6,0.1-8.1,0.3-7.5,7.9c1,13.4,0.1,27,2.5,40.3c0.8,4.3,2.6,7,6.7,8.4C242.6,471.6,245,472.2,245,475z"/>
<path fill="#6D6D6D" d="M360,423.1c-2.5,1.6-5,3.3-7.6,4.8c-1.2,0.7-2.7,1.2-2.6,3.1c-3.2,2-6.6,3.7-9.8,5.8c-1.4,0.3-2.9,0.2-4.3,1
	c-11.8,7.7-25.2,12.5-36.9,20.4c-2.4,1.6-5.3,3.9-8.7,4.1c-1.6-1.6-1-3.1,0.5-4.2c5.4-4,7.6-10.4,11.4-15.5
	c7.5-10.1,14.6-20.5,22.4-30.4c4.1-5.2,7.7-10.9,10.9-16.6c3.5-6.2,8.3-11.5,11.2-18.1c2-4.5,3.2-9.4,5.9-13.7
	c2.9-4.4,5.9-4.5,8.4-0.2c0.1,18.1,0,36.1,0.1,54.1C361,419.6,361,421.5,360,423.1z"/>
<path fill="#C8C8C8" d="M171.9,444.2c-4.4-1.7-9-3.2-12.9-6.1c-1.5-10-3.8-19.8-5.4-29.8c-3-19.4-2.8-39.1-5.3-58.6
	c-0.5-3.8-1.6-7.4-3.2-11c-2.6-5.8-2.5-12.4-3.2-18.6c-0.9-8.4-2.1-16.8-3.1-25.3c-0.8-6.7,0.5-9.6,5.7-12.5
	c5.8,0.1,11.6,0.1,15.7,5.3c-3.3,3.8-3.1,8.4-2.6,12.8c1.1,10.3,0.4,20.6,1.9,30.8c0.4,2.5,0.9,4.9,2.5,6.9
	c2.7,3.4,3.6,7.4,3.6,11.7c-0.2,10.5,0.9,20.9,2.5,31.3c1.2,7.7,0.8,15.6,1.2,23.4c0.5,11.2,2,22.1,3.9,33.1
	C173.5,439.9,173.9,442.3,171.9,444.2z"/>
<path fill="#717171" d="M360,362c-3.5-1.5-5.6,0.1-7,3.3c-2.7,6.2-4.5,12.9-8.4,18.3c-3.7,5.2-6.6,10.9-10.4,16
	c-4.3,5.8-7.8,12.1-12.4,17.8c-5.2,6.4-9.9,13.1-14.6,19.9c-3.4,5-7.3,9.7-10.1,15.1c-1.2,2.4-2.8,4.6-5.1,6c-1.7,1-2.5,2.1-2,4
	c-4.4,5.9-11.3,7.9-17.1,11.6c-1.2-6.5-1-13.1-0.9-19.7c0-4.6,2-9,5.6-12.4c5.1-4.9,9.3-10.4,10-17.8c0.7-0.5,1.4-0.6,2.2-0.4
	c2.6,3.3,0.6,7.9,3.1,11.4c6.2-6,10.4-13.4,15.5-20.1c8.6-11.3,16.2-23.3,23.7-35.3c5.7-9.1,11.1-18.5,15.6-28.3
	c3.5-7.7,7.8-15,10.2-23.2c0.8-2.8,1.3-2.8,3.5-2c-0.1,3.7,0.2,7.4-0.1,11c-0.8,7.2-0.1,14.4-0.4,21.6C360.9,359.8,361,361,360,362z
	"/>
<path fill="#B4B4B4" d="M191.8,453c-3.9-1.2-7.8-2.2-11-4.9c3.3-1.6,4.2-4.2,3.4-7.8c-0.8-3.6-1.3-7.2-1.9-10.8
	c-1.1-6.3-3-12.7,0.5-19c0.6-1,0.4-2.3,0.3-3.4c-0.5-7.1-0.5-14.3-0.4-21.4c0-3.7-0.4-7.3-1.4-10.8c-2.4-8-1.5-16.2-1.5-24.3
	c0-4.6-0.3-8.8-4.2-12.2c-2.3-2-2.6-5.3-2.7-8.4c-0.3-10.3-0.2-20.6-0.2-30.9c0-3.7,1.2-6.5,5.1-7.6c4.9,0.1,9.7,0.5,13.6,3.9
	c-3.3,6-2.2,12.6-2.7,19c-0.4,5,0,10-0.1,15c-0.1,3.9,0.8,7.1,4.3,9.5c2.6,1.7,3.4,4.3,3.1,7.4c-0.7,7.3-0.2,14.6-0.3,22
	c0,1.3,0,2.7,0.5,3.9c5.4,12,1.3,24.6,2.3,36.9c0.1,1.5-0.4,3.1-1.6,4.1c-3.5,2.7-3,6.2-2.4,10c1.2,7.6,2.6,15.1,3.7,22.6
	c0.4,2.9,1,6-1.5,8.5C194.6,455.2,193.2,453.9,191.8,453z"/>
<path fill="#CECECE" d="M145,283c-4.3,2.2-5.5,5.9-5,10.4c1.5,11.8,4,23.5,4.4,35.4c0.3,7.1,4.7,12.6,5.2,19.4
	c0.5,7.6,2.1,15.1,2.3,22.7c0.5,18.3,2.4,36.3,6.5,54.1c1,4.3,1.5,8.7,0.6,13.2c-1.3,0.5-2.6,1.4-4.2,0.7c-0.3-1.1,0.1-2.1,0.2-3.2
	c-1.4-6.8-3.2-13.6-4.2-20.5c-2.2-14-6.2-27.9-4.6-42.4c0.4-3.5-0.2-7.1-1.5-10.3c-3.5-8.8-4.5-18-5.2-27.3
	c-0.7-9.3-3.2-18.3-3.8-25.2c0.2,17.3-1.2,37-2.4,56.7c-0.2,3.4-0.7,6.9-1.9,10.3c-0.4,1.1-0.9,2.4-2.3,2.3c-1.8,0-1.9-1.5-2-2.9
	c-0.2-1.8-0.3-3.6-0.9-5.4c0-4.3,0-8.7,0-13c2.1-1.8,2.1-4.5,2.2-6.9c1.8-26.9,1.2-53.9,0.9-80.8c0.9-3.1,1.6-6.3,0.1-9.5
	c-0.3-2.5,0.9-4.9,0-7.4c-0.5-1.5-1.4-2.8-3.2-2.6c-1.8,0.2-1.7,1.8-1.8,3.1c-0.1,2.6-0.2,5.3,0.5,7.9c0.2,1,0.2,2,0,3
	c-0.4,1.2-0.7,2.5-1.8,3.3c-2.1-5.1-0.4-10.4-0.9-15.6c-0.2-1.8-0.1-3.6-0.1-5.5c5.1-2.4,7-7.2,8.9-12c0.8-2.1,1.2-4.6,3.6-5.7
	c6.3-0.5,12.2,2.1,18.3,2.8c2,0.7,4.4,0.8,5.8,2.8c1.4,3.4,0.5,6.1-2.1,8.5c-0.9,0.7-2,1.1-2.3,2.4c-1.1,2.6-3,5.3,0.6,7.5
	c0.3,0.3,0.6,0.7,0.8,1.2c0.1,0.7,0,1.4-0.5,2c-3,1.5-5.8-0.2-8.7-0.5c-2.1-0.2-4.2-1.2-6.3-0.2c-0.5,0.4-1,0.8-1.3,1.4
	c-0.3,3.7-2,7.4,0,11.1c0.6,1.6,0.6,3.3,1.1,4.9C139.7,277.2,141.6,280.5,145,283z"/>
<path fill="#BCBCBC" d="M171.9,444.2c1-6.6-1.3-12.9-2.4-19.1c-1.8-10.4-1.8-20.8-2.3-31.1c-0.5-10.4-2.3-20.7-3-31.1
	c-0.4-4.8-0.2-9.6-0.2-14.5c0-3.6-0.8-6.8-3.5-9.5c-4.2-4.1-3.1-9.9-3.2-14.6c-0.3-10.1-1.5-20.2-1.4-30.3c0-3.4,0.7-5.8,4.1-6.8
	c4.4-0.7,8.5-0.5,11.3,3.6c-3.3,11.6-1.7,23.4-1.2,35.1c0.2,5.1,0.4,10.3,5.1,14c1.4,1.1,1.4,3.3,1.3,5.2c-0.3,19.5,3.8,38.6,4,58
	c0,2,0.4,4.1,0,6c-2.4,9.7-0.3,19.1,1.6,28.6c0.4,2.1,0.7,4.3,0.2,6.4c-0.5,2.4-1.8,3.9-4.6,3.1
	C175.4,446.7,173.6,445.5,171.9,444.2z"/>
<path fill="#D2D2D2" d="M144.9,434c-0.9-4.6-4.8-5.7-8.4-7.1c-7.8-2.9-8.3-3.7-8.4-12.1c-0.2-8-0.6-15.9-0.9-23.9
	c1.4-1.2,2.2-2.6,2.6-4.6c2.9-14.9,4.7-29.8,4.9-45c0-2.1-0.7-5.6,2.5-5.5c2.6,0,2.1,3.3,2.3,5.3c0.8,8.8,2.1,17.5,4.3,26
	c2.2,8.6,2,17.4,3.3,26.1c2.1,14.3,5.3,28.3,8.6,42.4c-0.3,2-1.6,1.4-3,1.3C149.7,436.7,147.6,434.6,144.9,434z"/>
<path fill="#8C8C8C" d="M245,475c-0.5-0.4-0.9-1.2-1.5-1.3c-11.7-2.1-12-11.7-12.3-20.1c-0.4-12.1-1.3-24.2-1.5-36.3
	c-0.1-3.8,2.4-4.3,5.2-4.4c4.7-0.1,9.3-0.1,14-0.1c1.5,1.2,1.5,2.9,1.5,4.6c-0.1,16.8,0.4,33.5,1.2,50.3c0.1,2.4,0.4,5-1.5,7.1
	C248.3,474.6,246.7,477.2,245,475z"/>
<path fill="#BABABA" d="M177.6,447.1c3.2-0.3,3.8-2.4,3.4-5c-0.7-5.1-1.6-10.1-2.4-15.1c-0.6-3.4-1.1-6.6-0.7-10.2
	c1.6-15,0.7-29.9-1.5-44.8c-1.4-9-1.8-18.1-1.3-27.3c0.2-2.7-0.4-4.9-3-6.2c-1.7-0.9-2.8-2.4-3-4.3c-1.4-12.9-1-25.8-1.1-38.7
	c0-2.6,2.1-3.6,3-5.5c2.8-1.4,5.3-1.3,7.1,1.7c-3.8,1.9-4.2,5.2-4.1,9.1c0.3,9.8-0.1,19.6,0.2,29.4c0.1,3.6,0.5,7.3,4.6,9.2
	c2.3,1.1,2.3,3.3,2.4,5.6c0.2,9.1-1.3,18.4,1.1,27.2c2.9,10.5,1,21.1,2,31.5c0.5,4.3-0.4,7.8-1.9,11.7c-1.6,4.3,0.6,9.1,1.3,13.7
	c0.6,4.6,1.6,9.1,2.4,13.7c0.7,4.1-0.1,6.9-5.2,5.3C179.6,448.2,178.4,448.3,177.6,447.1z"/>
<path fill="#4A4A4A" d="M270.8,477c0.7,3-0.8,4.8-3.4,5.7c-5.4,1.9-10.6,1.8-15.4-1.7c-0.6-4.6-0.6-4.6,5.9-4.5
	c2.2-0.1,4.5,0.5,6.1-1.5c1.5-1.8,1.4-4.1,1.4-6.2c-1.6-60.5-0.4-120.9-0.8-181.4c0-0.7-0.1-1.3-0.3-2c-1.3-2.7,1.3-7.1-3.6-8.2
	c-1-0.1-2-0.2-2.9-0.6c-0.5-0.2-0.8-0.6-1-1.1c0-0.6,0.2-1,0.7-1.3c0.9-0.5,1.9-0.6,2.9-0.7c2.1-0.1,3.2-1.4,4.3-2.9
	c1.2-1.6,2.6-3.3,4.9-1.4c1.3,2.1,1.1,4.5,1.1,6.8c0,8.3,0.2,16.6,0,24.9c-0.4,14.6,1.7,29.2,1,43.8c0.1,11,0.1,22-0.1,32.9
	c0.3,9,0.1,17.9,0.1,26.9c-0.5,5.4,0.3,10.7,0,16.1c-0.3,15.1-0.2,30.2,0,45.3C271.5,469.9,269.9,473.3,270.8,477z"/>
<path fill="#9A9A9A" d="M366.1,154.1c1.5,6.9,0.8,13.9-0.1,20.8c-0.5,6.4,0.9,12.9-0.8,19.2c-3.1-4-0.7-8.7-1.7-12.9
	c-9.3,8.2-18.5,16.5-27,25.5c-1.7,1.4-3.3,3.2-5.9,2.4c-1.9-1.5-1.9-3.4-1.1-5.4c2.4-6.5,3.8-13.3,7.8-19.2c1.1-1.6,1.9-3.5,2.1-5.5
	c0.6-2.8,2.8-4.5,4.7-6.2c6.3-5.5,12.1-11.6,18.7-16.9C363.7,155.2,364.6,154.1,366.1,154.1z"/>
<path fill="#545454" d="M258,477.9c-2,1.1-6.6-2.9-6,3.1c-2.2-1.6,0.3-4.6-1.9-6.2c-0.4-20.6-0.8-41.3-1.2-61.9
	c1.1-20.1-0.9-40.2-0.8-60.3c0.1-23.6,0-47.2-0.1-70.9c0-2,0.4-4-1.2-5.7c3.9-1.2,3.5,2,3.6,4c0.3,6.1,0,12.3,0.1,18.4
	c0.2,6.8-0.8,13.6,0.7,20.3c0.8,5.4,0.4,10.9,0.4,16.4c-0.2,16.8,0,33.7-0.1,50.5c0.3,10.7-0.8,21.3,0.6,32
	c1.1,6.2-0.4,12.7,1.6,19.7c0.9-2.2,0.8-3.9,0.8-5.5c0-19.5,0.1-39,0.1-58.5c0-2-0.3-4-0.8-5.9c-0.7-4.6-0.4-9.3-0.4-13.9
	c-0.1-24.1,0-48.2,0-72.3c0-2.4-0.8-5.7,3.5-5.4l0.2,0.3c0.3,0.6,0.4,1.2,0.4,1.9c-0.2,19.8-0.7,39.6,0.1,59.4
	c1.8,45.4,0.3,90.8,0.9,136.1C258.5,475,258.7,476.5,258,477.9z"/>
<path fill="#767676" d="M270.1,421c0-5.3,0-10.7,0-16c2.7,0,1.5,3,3.4,4.1c3-1.7,5-4.6,7.1-7.5c3.4-4.5,5.9-4.2,8.6,0.9
	c0.4,5.6,0.2,11.2,0.2,16.8c0,1.7-0.1,3.3-1.4,4.6c1.6,8.1-3.9,13-8.6,17.9c-5,5.2-6.5,10.7-5.9,17.9c0.4,4.5,1.7,9.5-0.5,14
	c-0.6,0.1-1.3,0.2-1.9,0.3c-1-1.5-0.5-3.2-0.5-4.9c0-14.5,0-28.9,0-43.4C270.5,424.3,270.8,422.6,270.1,421z"/>
<path fill="#CECECE" d="M155,436.8c-5.8-20.2-10.1-40.7-10.9-61.8c-0.1-2.9-1.8-5.3-2.2-8.1c-1.5-10.1-3.9-20-4.2-30.8
	c-2.3,1.8-1.6,3.7-1.6,5.3c-0.3,15.7-2.9,31.2-5,46.8c-0.3,2.4-1.8,2.9-3.9,2.8c0-0.7,0-1.3,0-2c-0.3-4.3-0.4-8.6-1-12.9
	c0-1.7,0-3.3,0-5c1.7,2.1,1.8,4.9,3,7.5c5.4-24.6,3.8-49.8,5.8-74.7c0.4,0,0.8,0,1.3,0c1,6.1,1.7,12.3,3,18.4
	c2.4,11.2,1.5,22.8,4.9,33.8c1.1,3.5,2.4,6.8,3.2,10.4c1.6,7.1-0.7,14,0.4,21.2c2.4,15.7,5.2,31.3,8.6,46.8c0.2,1,0.9,1.9-0.3,2.7
	C155.6,437.5,155.2,437.4,155,436.8z"/>
<path fill="#C8C8C8" d="M123,268.1c0.1-1.1-0.2-2.3,1-3.1c0.7,0.1,1.5-0.6,2.2,0.1c0.7,0.9,0.7,2.4,2.1,2.7c0.6,0.2,1.2,0.5,1.6,1
	c1,1.8,1.1,3.8,1.1,5.8c0,20,0.3,39.9-0.2,59.9c-0.1,6.1-0.5,12.2-1,18.3c-0.2,1.8,0.8,5.9-3.7,5.2c0-2.7-0.1-5.3-0.1-8
	c-1.3-3.3,0.3-6.8-0.9-10c0-5-0.1-10-0.1-15c-1.3-5.6,0.3-11.4-0.9-17C122.3,294.7,123.3,281.4,123,268.1z"/>
<path fill="#CECECE" d="M134,230c-1.7,4.4-3.3,8.9-5.5,13.1c-1.5,2.8-3.4,4.3-6.6,3.9c-3.2-0.9-3-3.5-3-6c0.7-4.6-1-9.5,1.1-14
	C124.5,225.4,131.4,226.9,134,230z"/>
<path fill="#4C4C4C" d="M360.9,337c0-4,0-8,0-12c-1.7-1.8-1.4-4-1.5-6.1c0-6.9-0.1-13.9,0.1-20.8c-0.2-8.4-0.1-16.8,0-25.2
	c0-2.1-0.2-4.4,1.8-5.9c2.4,1,0.9,3.1,1.2,4.6c0.3,1.8-0.3,3.6,0.4,5.4c0.3,15.7,0,31.5-0.5,47.2c-0.4,16.2-0.4,32.5-0.5,48.7
	c-2.3-0.6-1.2-2.4-1.3-3.6c-0.2-3.5-0.1-7-0.1-10.5C360.7,351.5,360,344.3,360.9,337z"/>
<path fill="#555555" d="M360.9,358.9c0.6,4.7-0.9,9.5,0.9,14c0,15.3,0,30.6,0,45.9c0,1.7-0.1,3.4-1.8,4.3c0-20.4,0-40.8,0-61.1
	c0-1,0-2,0-3C360.2,358.5,360.6,358.5,360.9,358.9z"/>
<path fill="#404040" d="M362.8,276.9c-1.7-3.2-0.4-6.7-0.9-10c-1.7-1.7-1.5-4-1.5-6.1c0-9.1-0.2-18.2,0.1-27.3
	c-0.5-5.5,1.3-10.8,1-16.2c0.2-2.8-0.7-5.9,1.5-8.4c2.5-0.1,0.8,2.2,1.8,3C362.5,233.6,363.2,255.3,362.8,276.9z"/>
<path fill="#717171" d="M270.1,421c1.5,1.5,0.9,3.5,0.9,5.2c0.1,16,0.1,31.9,0.1,47.9c-0.1,0.9-0.1,1.9-0.2,2.8
	c-0.7-0.4-1.4-0.9-1.3-1.9C270.7,457.1,269.6,439,270.1,421z"/>
<path fill="#414141" d="M340,436.8c2.3-3.5,5.6-5.5,9.8-5.8C349.7,435.7,347.6,436.9,340,436.8z"/>
<path fill="#343434" d="M364.8,212c-1-0.8-0.7-2-0.9-3.1c-0.8-0.7-1.2-1.7-1.2-2.7c-0.4-8-0.4-16,0-23.9c0.1-1.2,0.7-2.2,1.2-3.3
	c2.3-0.3,1.1,1.5,1.1,2.2c0.2,4.3,0.2,8.6,0.2,12.9C365,200.1,364.9,206,364.8,212z"/>
<path fill="#545454" d="M155,436.8c0.3,0.1,0.7,0.1,1,0.2c0.2,1-0.8,1.2-1.2,1.8c-3.6-1-8.1-0.2-9.9-4.8
	C148.9,432.6,151.3,436.8,155,436.8z"/>
<path fill="#CECECE" d="M124.1,308c2,5.6,0.5,11.4,0.9,17C122.9,319.5,124.4,313.7,124.1,308z"/>
<path fill="#D2D2D2" d="M126.1,376c0.8,4.3,2.5,8.5,1,12.9C125,384.8,126.4,380.3,126.1,376z"/>
<path fill="#CECECE" d="M125.1,340c1.8,3.2,0.5,6.7,0.9,10C124,346.8,125.4,343.3,125.1,340z"/>
<path fill="#242424" d="M334.2,124.9c6,0.7,12.1,1.3,18.2,1.2c2.5,0,4.8,1.1,6.7,2.9c2.6,4.4-0.5,6.8-3.3,9.2
	c-7,6.1-14.2,12-21,18.3c-14.9,12.6-29.1,26-44.4,38.1c-3,2-6.1,3.7-9.4,5.1c-1,0.3-1.9,0.3-2.9,0c-2.4-1.4-0.6-2.6,0.4-3.4
	c8-6.8,14.6-14.9,21.7-22.6c2.2-2.4,4-4.8,5.4-7.7c1.1-1.4,4.1-0.9,3.6-3.8c0.1-2.8,1.6-4.9,3.6-6.7c1-0.6,2.2-0.6,2.7-0.6
	c-1.8,0.3-4.2-0.7-6.6-0.4c-0.5,0-1,0-1.4-0.1c-2.8-0.8-5.9-0.9-8.6-2.2c-0.7-0.8-1.4-1.6-0.5-2.7c4.9-0.4,9.8-0.2,14.6,0.7
	c2.3,0.4,4.5,1,6.7,0.2c0.7-0.2-0.2-0.8,0.1-0.2c0.1,0.2-0.1,0.2-0.4,0.3c-2,0.5-3.9,0.3-5.8-0.6c-1.5-1.2-4.7-0.9-3.7-4.3
	c3.5-2.4,7.2,0.6,10.7-0.3c3.5-1.2,5.7-3.9,7.9-6.6c1.5-1.8,2.9-3.6,4.6-5.2c4.1-3.8,4.1-3.8,0.1-7.7c-0.4-0.4-0.4-0.9,0.1-1.3
	C333.5,124.6,333.8,124.7,334.2,124.9z"/>
<path fill="#585959" d="M119.9,225.2c-6.3-2.7-7.1-5.7-2.1-10.5c6.7-6.4,14.5-11.4,22-16.9c1.7-0.9,3.5-1.4,5.4-0.7
	c0.5,0.2,0.8,0.5,1.1,1c1,3.6-2.3,4.6-4,6.5c-2,1.2-3.8,3.1-6.4,2.7c-6.1,3.9-11.4,8.8-17.1,12.8c5.5,0.1,10.6,2.2,16,2.9
	c1.6,0.5,3.3,0.6,5,0.9c0.5,0.1,1,0.2,1.5,0.4c10.3,2.3,20.5,4.9,31,6.4c11.1,2.7,22.4,4.5,33.5,7.1c4,1.3,8.2,2,12.4,2.7
	c2.3,0.5,4.7,0.9,7,1.4c7.7,1.6,15.4,3.3,23.1,4.6c1.7,0.4,3.5,0.7,3.9,2.9c-3.5,3.6-7.8,1.3-11.8,1.5c-9.3-0.5-18.2-3.7-27.3-5.1
	c-2.4-0.4-4.9-0.8-7.3-1.5c-13.6-2.2-27-6.1-40.6-8.3c-4.2-0.9-8.2-2.7-12.4-3.6C141.7,230.6,130.7,228.6,119.9,225.2z"/>
<path fill="#D1D1D1" d="M333.8,155.9c7.3-6.5,14.5-12.9,21.8-19.4c2.3-2,4.4-4.1,3.4-7.6c1,0.7,2,1.3,3,2c-1.2,2.7-0.2,4.8,1.7,6.7
	c1.4,1.4,2.8,2.8,4.2,4.3c-0.2,1.5-4.3,1.2-1.9,4c-1.3,0.3-2.4,0.9-3,2.1c-0.1,0.7-0.4,1.3-0.8,1.9c-5.5,5.1-10.7,10.6-17,14.8
	c-2,0.2-3.2,1.6-4.5,2.9c-2.5,2.6-5.2,2.7-8,0.7c-3-2.2-2.7-5-1.2-7.9C332.2,158.8,333.5,157.6,333.8,155.9z"/>
<path fill="#2E2E2E" d="M334.2,124.9c-0.1,0.3-0.2,0.8-0.1,0.8c1.5,1,4.4-1,4.8,2c0.3,2.3-1.4,4-3.1,5.3c-5.3,4-8.2,10.3-13.8,14
	c-4.2-1.6-8.8-1.5-13.2-2.2c-2.3-1.9-0.3-3.2,0.7-4.4c2-2.3,4.3-4.5,6.2-6.9c1.1-1.4,1.6-2.7,1-4.4c1.4-3.3,4.7-3.6,7.4-4.9
	C327.4,124,330.9,123.6,334.2,124.9z"/>
<path fill="#898989" d="M324.1,124.1c-1.7,2.6-5.1,2.8-7,5c-5.3,5.1-12,7.9-18.2,11.7c-0.7,0.3-1.5,0.4-2.3,0.5
	c-2.6,0.1-5.3,0.2-7.5-1.7c-1.3-5.9,3.5-9.2,5.9-13.5c1.3-2.3,3.3-3.6,6-3.8C308.7,121.9,316.4,123,324.1,124.1z"/>
<path fill="#1C1C1C" d="M146,182.1c-3.7-2.8-2.1-5.6,0.4-7.8c4.2-3.6,8.7-6.9,13.2-10.2c7.4-5.4,14.9-10.7,22.4-16.1
	c1.3-0.4,1.3,0.5,1.1,1.3c-0.3,1.6-0.8,3.1-1.2,4.7c-3.7,5-9.3,7.9-14.1,11.5c-3.6,2.8-7.4,5.5-11.2,8.3c1.7,1.5,3.9,0.6,5.3,1.9
	c0.4,2.6-2,5.4,1,7.9c0.6,0.5-1.1,1.7-2.2,2.1c-0.7,0.2-1.5,0.2-2.2,0C154.2,184.8,149.7,184.9,146,182.1z"/>
<path fill="#696969" d="M266,119.2c6.7,0.4,13.4,0.7,20,2c-3.3,4.4-8.2,7.6-10.1,13c-1.2,3.1-3.2,4.4-6.4,4.2
	c-3.8-0.1-7.7,0.8-11.2-1.6c-2.1-2.5-1-5,0.4-7.2C260.8,125.9,263,122.3,266,119.2z"/>
<path fill="#7A7A7A" d="M269.9,137c2,0,3.2-0.1,4.3-2.7c2.4-5.5,5.7-10.6,11.7-13.2c5.1-0.8,10,1.1,15,1
	c-6.1,4.1-9.2,10.3-11.9,16.8c-0.9,1.1-2.3,1.4-3.5,1.3c-5-0.5-10.1-0.4-15-1.7C269.8,138.2,269.7,137.7,269.9,137z"/>
<path fill="#5A5A5A" d="M266,119.2c-0.3,4.2-3.9,6.6-5.8,10c-1.2,2.2-2.4,4.2-2.2,6.8c-1.5,1.6-3.6,1.6-5.5,1.4
	c-4.2-0.6-8.4-0.6-12.6-1.4c-0.5-0.2-0.9-0.6-1.2-1c6.8-4,8.1-13,15.2-16.7C258,118.5,262,118.8,266,119.2z"/>
<path fill="#515151" d="M254,118.2c-3.5,4.8-7.5,9.3-10.1,14.7c-1,2-3.3,0.8-5,1.2c-3.2,1.9-6.4,1.9-9.7,0.2
	c4.2-5.7,6.9-12.6,12.8-17C246,117.5,250,117.8,254,118.2z"/>
<path fill="#2D2D2D" d="M181,154c-0.9-2.2,1.5-3.9,1-6c11-8,22-16,32.9-24c2.4,0.2,1,1.6,0.5,2.1c-1.8,1.8-2.3,4.3-3.5,6.4
	c-8.6,7.8-18.5,13.9-27.7,21C183.3,154.2,182.2,154.6,181,154z"/>
<path fill="#454545" d="M242,117.2c-2.6,5.3-7.4,9.3-9.4,15c-0.5,1.4-2.4,0.7-3.7,0.9c-3.3,2-6.6,2-9.9,0c3.4-4.2,5.7-9,9.1-13.1
	c2.5-3.1,6.5-2,9.8-2.7C239.3,117.2,240.6,117.2,242,117.2z"/>
<path fill="#393A39" d="M238,117.2c-7.9,0.1-11.2,5.9-14.2,11.8c-1.1,2.3-2.4,3.3-4.9,3.1c-2.7,1.8-5.3,1.8-7.9-0.1
	c0.3-3.2,2.8-5.2,3.9-8C221.6,118.4,229.4,116.6,238,117.2z"/>
<path fill="#9D9D9D" d="M146,198c-2,0-4.1-0.1-6.1-0.1c-1.4-4.3,0-8.2,1.3-12.3c0.9-2.9,2.3-3.3,4.8-2.7c1.9-0.2,3.5,0.6,5.3,1
	C151.1,189.2,150.4,194.3,146,198z"/>
<path fill="#DCDCDC" d="M119.9,225.2c11,2.3,22,4.6,33,6.9c0.2,0.2,0.3,0.4,0.3,0.6c-0.1,0.2-0.1,0.3-0.2,0.3c-6.5,0-12.6-2.7-19-3
	c-4.5-1.8-9.2-2.5-14-3C120,226.4,120,225.8,119.9,225.2z"/>
<path fill="#4D4D4D" d="M367.9,141.9c-4.1-0.6-5.7-4.2-7.7-7c-0.9-1.2-0.4-3.3,1.8-3.9C363.9,134.6,368.8,136.7,367.9,141.9z"/>
<path fill="#CBCBCB" d="M150.9,184.1c-1.8,0-3.5-0.2-5-1.2c0-0.3,0.1-0.5,0.1-0.8c4.4,0.9,8.7,1.9,13.1,2.8c0.2,0.3,0.3,0.6,0.3,0.8
	c-0.1,0.3-0.1,0.4-0.2,0.4c-1.2,0.5-2.4,0.2-3.6,0.1C153.6,186.2,152,185.8,150.9,184.1z"/>
<path fill="#1B1B1B" d="M362,149c0.3-0.3,0.7-0.6,1-1c2,1.5,4.6,2.8,3.1,6.1c-8.8,8.2-17.6,16.5-26.4,24.7c-2,4.6-6.4,7-9.8,10.2
	c-5.5,5.2-11.1,10.4-16.6,15.6c-6.8,5.9-13.2,12.1-19.9,18.1c-5.2,4.6-9.7,10.1-16.4,12.8c-2.4-0.1-4.5-1.3-6.8-1.7
	c-5.5-2.6-10.5-2.6-14.6,2.5c-0.9-0.1-1.1-0.7-1.2-1.4c0-0.5,0.1-0.9,0.2-1.4c0.4-1.1,1.1-2,1.8-2.9c0.7-0.9,1.4-1.8,2.3-2.6
	c0.6-0.5,1.3-0.6,2-0.6c2.8,0.4,5.5,0.1,8-1.7c2.5-1.8,5.8-0.7,8.6-1.6c4.8-0.9,7.8-4.5,11.1-7.7c3.5-3,7.9-5.1,9.3-10
	c0.4-1.8,1.6-2.8,3.3-3.2c1.8,0.1,3.2-0.6,4.4-1.8c15.3-14.9,32-28.2,47.3-43.1C355.8,155.3,360,153.2,362,149z"/>
<path fill="#AAAAAA" d="M212,461c-5.5-2-11-4-16-7c2.6-4.9,0.8-10.1-0.4-14.6c-1.6-6.5-1.3-13.2-3.4-19.5c-0.9-2.7-0.9-5.6,2.7-7
	c2.4-0.9,1.9-3.2,2-5.1c0.4-8.9-0.9-17.9,0.8-26.9c0.1-0.7-0.2-1.7-0.6-2.4c-5.9-10.3-2.8-21.5-2.8-32.3c0-3.6-0.5-5.8-3.3-7.2
	c-3.2-1.5-4.3-3.9-4.1-7.2c0.5-8.4-0.3-16.9,0.6-25.4c0.5-4.3-0.6-8.4,3.4-11.4c4.8-1.3,6.2-4.4,5.7-9.1c-0.5-5.2,0.6-10.5-0.6-15.7
	c-0.2-1.6-1.2-3.2,0.2-4.7c1.6-0.9,3.2-0.4,4.8,0c9.5,2,18.9,4.4,28.4,6.5c1.7,0.4,4.1,0.3,4.5,3c-2,0.9-2.7,2.8-3.8,4.5
	c-6.2,8.9-9.7,19.7-17.9,27.3c-0.7,0.6-1.2,1.8-1.2,2.7c0.1,8-3.1,15.5-3.4,23.5c-0.1,4.1,1.1,5.9,5.1,6.1c1.3,0.1,2.6,0.6,3.9,0.7
	c3.3,0.3,3.3,1,2.5,4.5c-2.2,9.1-4.1,18.3-4.5,27.7c-0.1,1.7,1,3.2,2.8,3.7c3.9,1.1,5.6,1.8,4.2,7.3c-1.8,7-3.3,14.4-3.7,21.9
	c-0.2,4-0.6,8-6.2,8.4c-2.4,0.2-2.8,2.3-2.7,4.6c0.3,9.8,2.4,19.3,3.5,29c0.4,3.3,1.1,6.5,1.4,9.8C214.1,458.3,214.8,460.5,212,461z
	"/>
<path fill="#BBBBBB" d="M234,275c-9.1-3.4-18.8-4.5-28.2-6.9c-3.3-0.8-6.6-2.3-10.1-1.9c-1.3,0.7-2.3,0.6-3-0.9
	c0.1-1.5-0.5-2.9-1.1-4.2c-0.8-1.8-0.6-3.6,0.8-5c3.4-3.5,6.4-7.1,4.2-12.5c-0.1-0.4,0.4-0.8,0.9-1c2.9-0.1,5.6,1.3,8.5,1.1
	c10.6,2.6,21.4,4.5,32,6.8c0.7,0.1,1.3,0,1.9-0.3c4-0.5,8.3,0.9,12.2-1c0.3-0.5,0.7-0.8,1.2-1.1c1.9-0.6,3.8-1.4,5.7,0.3
	c1.1,1.3,1.5,3,1.4,4.6c-0.2,7.3,0.9,14.7-0.4,22c-1,0-2,0.1-3,0.1c-1.1,0.5-2.2,0.8-3.3-0.1c-2.2-4.6-0.9-9.5-1.1-14.2
	c-0.2-7.4-0.1-7.4-7.3-7.6c-1.2,0-2.3-0.3-3.2-1.1c-2.6-0.4-2.9,1.1-3.1,3.3c-0.3,4.9,0.8,9.6,1,14.4C240.1,275.8,240,275.8,234,275
	z"/>
<path fill="#4C4C4C" d="M242,252c0.2,0,0.3,0,0.5,0c11.5-0.9,11.5-0.9,11.5,11c0,3.9,0.2,7.9,0.2,11.8c-2.4,2.5-2.8,5.5-2.8,8.7
	c0,9.6,0.1,19.3,0,28.9c0,2.3,0.3,4.7-1.5,6.6c-1.6-1.5-0.9-3.4-0.9-5.2c-0.1-11.1,0-22.2-0.1-33.2c0-1.7,1.1-4.3-2.2-4.5
	c-3.7,0.5-4.9-1-4.7-4.8C242.2,264.9,242,258.5,242,252z"/>
<path fill="#224371" d="M197.2,269.7c1.5,7.5,0.8,15.1,0.7,22.7c-0.1,4.8-4.2,2.7-6.9,2.8c-4.3-1.1-8.6-2.2-12.9-3.3
	c-2.3-1-4.5-1.8-7.1-1.7c-3.7-1-7.3-1.9-11-2.9c-4.9-1.7-9.8-3.4-15-4.1c-6.3-0.8-5.8-5.6-6.1-10c-0.2-3-1.1-6-0.8-9.1
	c0.5-1.3,1.4-2.4,3-1.8c1.4,0.5,1.9,1.8,2,3.2c0.4,2.8,0.2,5.6,0.8,8.4c0.4,2.1,1.3,1.3,2.3,0.7c2.1-0.7,4.1-0.5,6,0.6
	c1.1,0.7,1.9,1.7,2.5,2.8c3.5,6.3,11.2,7.5,16.6,2.6c3.3-0.7,6.1,0.1,8.2,2.8c2.4,5.7,3.1,6.1,9.1,4.3c1-0.3,2.1,0.1,3.1-0.1
	c1.3-1,0.9-2.5,0.8-3.7C192.1,278.2,193.3,273.5,197.2,269.7z"/>
<path fill="#727272" d="M360.9,298c0,9,0,18-0.1,27c-3.1,5.8-4.5,12.3-7.7,18.1c-3.4,6.1-5.6,13-9.4,18.8c-2.7,4.2-4.8,8.6-7.5,12.8
	c-5.6,8.9-10.2,18.4-17.6,26.2c-0.3,0.4-0.6,0.8-0.8,1.3c-5.1,11.5-13.6,20.5-21.4,30.1c-1.4,1.7-0.9,5.9-3.7,5
	c-3.1-1-1.9-5.2-2.7-7.9c-0.5-1.7-0.1-3.6-0.1-5.5c-1.2-1.3-1-2.9-0.8-4.5c1.8-9.7,9-16.4,13.8-24.4c6.2-10.2,13.7-19.6,19.3-30
	c5.1-9.3,11.3-18,15.5-27.8c4.9-11.4,10.9-22.3,15.9-33.7C354.9,300.7,356.6,297.4,360.9,298z"/>
<path fill="#5D5D5D" d="M290,419c0,1.7,0,3.3,0,5c-0.7,0-1.3,0-2,0c0-7.7,0-15.3,0-23c-1.3-2-1.6-4.3-1.6-6.7
	c0-11.4-0.1-22.8,0.1-34.2c0-11.7-0.2-23.3,0-35c0.2-5.1-0.3-10.1,0.1-15.2c0.2-1.9-0.6-4.5,2.6-4.9c1.7,2,1.2,4.4,1.2,6.7
	c0,23.6,0,47.2,0,70.8c0,2.5-0.1,5,0.7,7.4C291.6,399.6,292.5,409.4,290,419z"/>
<path fill="#6D6D6D" d="M360.9,358.9c-0.3,0.1-0.6,0.1-0.9,0.1c0.5-7.3-1.1-14.7,0.9-22C360.9,344.3,360.9,351.6,360.9,358.9z"/>
<path fill="#C4C4C4" d="M197,243c3.9,5.3,0.9,9.4-2.7,12.8c-2.5,2.4-2.9,4.1-0.4,6.5c1.4,1.3,1,2.3-0.9,2.6
	c-0.6,0.7-1.4,1.1-2.2,0.9c-8-1.8-16.2-2.4-23.7-6.2c-0.5-0.6-0.8-1.3-0.8-2.1c0-0.7,0.3-1.3,0.2-2c-0.4-2.3-2.5-2.3-3.9-2
	c-2.9,0.6-5.9-4.8-8.5,0.3c-5.4-2.4-2-5.8-1.1-9c5-0.9,9.3,1.9,13,2.2c-2-0.9-5.3-1.2-8.4-2.2c-1.1-0.4-2.8,0.1-2.7-2
	c3.2-1.9,3.1-4.9,3.1-8c1.8-1.5,3.7,0.3,5.5,0c10.6,2.1,21,4.4,31.6,6.5C196,241.7,196.6,242.3,197,243z"/>
<path fill="#213F65" d="M167,259c8.5,2.6,17.2,4.4,25.9,6c0.9,0.4,1.8,0.8,2.7,1.2c0.7,1.1,1.6,2,1.5,3.5c-0.6,1.9,1.1,4.9-2.7,5.4
	c-0.3,0-0.4,2.7-0.4,4.2c-0.1,2.8,0,5.7-0.1,8.5c0,1.2-0.2,2.6-2,1.3c-0.6-3-0.3-6-0.4-8.9c0.1-1.3-0.1-2.6,0.1-3.9
	c0.3-3.7-1.5-5.2-4.9-6.2c-4.3-1.2-8.8-1.2-13-2.8c-6.3-2.4-13.1-3.1-19.6-5.2c-7.9-2.3-7.8-2.3-7.9,6c0,2.3,0.3,4.7-0.3,7
	c-0.7,1.1-0.9,2.5-2.6,3.4c-0.7-4.3-1.7-8.3-1.5-12.6c0.1-1.8,0.2-4.1-2.9-2.8c-1.8-2.6-1.1-5.3-0.2-8c1.7-2.1,3.9-1.3,5.9-0.9
	c3.4,0.7,6.8,1.4,10.2,2C159.3,255.6,163.3,256.9,167,259z"/>
<path fill="#C8C8C8" d="M124,262c-2.1-3.5-0.6-7.3-0.9-11c-0.1-1.4,1-1.9,2.3-1.9c2.3,0,4.2,0.8,5.1,3.1c1.1,2.9,0.4,5.8-0.5,8.6
	c-0.2,0.4-0.5,0.7-1,0.9c-0.7,0.2-1.3,0.1-1.9-0.2c-0.9,0.8,0.6-2.9-1.2-0.6C125.4,261.4,124.8,261.9,124,262z"/>
<path fill="#A7A5A3" d="M154.1,253.9c-1-3-1-5.2,3-3.3c2.8,1.3,5.8,1.7,8.7,2.2c3.5,0.6,3.1,2.2,1.2,4.2c-2,1.6-4,0.4-5.6-0.5
	c-2.1-1.2-4.2-1.7-6.4-2.5C154.7,254,154.4,254,154.1,253.9z"/>
<path fill="#CECECE" d="M155,254.1c2.7-0.9,4.7,0.2,6.9,1.7c1.4,0.9,3.4,0.9,5.1,1.3c0,0.6,0,1.3,0,1.9c-4.2,0-8.1-1.6-12-2.8
	C155,255.5,155,254.8,155,254.1z"/>
<path fill="#9ABDCF" d="M155,243c4.5,2.6,10.1,2,14.4,5.6c-5.4-1.2-10.9-2.4-16.3-3.7C153,243.7,153.7,243,155,243z"/>
<path fill="#767676" d="M129,261c0.3-0.1,0.6-0.2,1-0.3c1.4,2.7,3.4,5.4-0.1,8c-0.6,0-1.2,0.1-1.8,0.1
	C126.7,266.1,127.4,263.5,129,261z"/>
<path fill="#CECECE" d="M163,236c-1.7-0.3-3.3-0.7-5-1c-1.4-1.3-3.7-0.4-5-2c0-0.3,0-0.6,0-0.9c4.2,0.6,8.3,1.3,12.4,2.7
	C164.9,235.8,163.6,235.2,163,236z"/>
<path fill="#C8C8C8" d="M138.8,255c0.1,2.7,0.2,5.3,0.2,8c-0.1,3.3-0.1,6.6-0.2,10c-1.5-1.5-0.6-3.3-0.9-5c-1.4-4-0.3-7.9-0.1-11.9
	C138.2,255.7,138.5,255.4,138.8,255z"/>
<path fill="#CECECE" d="M137.9,256c0,4,0,8,0.1,11.9C134.4,264,137.5,260,137.9,256z"/>
<path fill="#CECECE" d="M124,262c0.9-0.6,1.1-4,3.1-0.9c0.2,1.7-1,2.7-2,3.8c-0.3,0.6-0.6,0.9-1.1,0.1C124,264,124,263,124,262z"/>
<path fill="#8A8A8A" d="M288.9,304.9c-2.1,6.6-0.3,13.4-1,20c-4-2-6.2-0.6-7.9,3.4c-2,4.7-5.1,8.8-6.7,13.8c-0.5,1.5-1,3.3-3.3,2.8
	c-0.5-23.8-1.2-47.6-1-71.4c0-1.5,0.8-3.4-1-4.6c-0.6-1.5,0.8-2,1.5-2.8c6.2-4.3,11-10.1,16.4-15.3c2.7-2.7,5.5-5.3,8.5-7.6
	c10.2-10.7,21.7-20.1,31.9-30.8c1.4-1.4,2.5-3.1,4.7-3.5c1.7-1,3.3-2,5-3c3.1,1.7,2.5,4.6,1.8,7c-2,7-3.6,14.1-6.6,20.8
	c-3.6,8.1-5.5,17-10,24.8c-1.3,3.6-4.4,5.7-6.9,8.3c-5.2,5.4-10.6,10.5-15.7,15.9c-4.9,5.6-6.9,12.4-8.3,19.5
	C290,303.3,289.8,304.3,288.9,304.9z"/>
<path fill="#7C7C7C" d="M287.9,359.9c0,13.7,0,27.3,0,41c-2.3-2.2-4.5-2-6,0.7c-1.6,2.8-3.5,5.1-5.8,7.2c-1,1-1.5,3.1-3.2,2.5
	c-1.8-0.5-1.8-2.5-1.9-4.2c-0.1-0.8-0.6-1.5-0.9-2.2c0-9,0-18,0-27c2.8-6.7,7.2-12.6,10.8-18.8C283.4,354.8,285.7,355.2,287.9,359.9
	z"/>
<path fill="#838383" d="M287.9,359.9c-2.5-4-4.9-3.3-6.6,0.5c-2.5,5.6-7,10-9.1,15.9c-0.4,1-1.1,1.6-2.2,1.7c0-11,0-22-0.1-33
	c3.9-5.1,4.9-11.8,8.9-16.8c0.4-0.5,0.6-1.2,0.9-1.8c3.2-6.4,3.3-6.4,8.1-1.4C287.9,336.6,287.9,348.3,287.9,359.9z"/>
<path fill="#3D3D3D" d="M250,319c0-12.8,0.1-25.6-0.1-38.3c0-3.4,0.9-5.4,4.4-5.9c0.9,0.1,1.8,0.2,2.7,0.3c0,0.3,0,0.5-0.1,0.8
	c-1.6,0.4-2.2,1.1-2.2,3.1c0.2,29.7,0.2,59.4,0.3,89.1c1.3,7.2,0,14.5-0.1,21.7c0,1.2-0.3,2.4-1.8,2.6c-1.5,0.2-1.9-1-2.4-2.1
	c-0.4-1.5-0.2-3.1-0.2-4.7c0-15.2,0-30.4,0-45.6c0-1.6,0.4-3.3-0.5-4.9C250,329.6,250,324.3,250,319z"/>
<path fill="#737373" d="M258,477.9c-1.4-2.1-1-4.5-1-6.8c0-39.4,0.5-78.8-0.3-118.3c-0.4-23.6-0.6-47.2-0.8-70.8
	c0-1.8-0.6-3.7,0.9-5.2c1.6,1.4,1.4,3.3,1.5,5.1c1.4,17.9,0.9,35.9,1,53.9c0.3,31.1,0.8,62.2,1.3,93.4c0.2,13.8,0.3,27.6,0.7,41.4
	c0,1.3,0,2.7,0.5,3.9c0.6,1,1.8,1.5,2.2,2.6C262.2,478.7,260,477.8,258,477.9z"/>
<path fill="#B5B5B5" d="M264.1,477.2c-1-0.1-2.1-0.2-3.1-0.3c0.2-18.2-0.8-36.5-1-54.7c0-2-0.4-4,0.5-5.9c3.5-0.4,2.7,2.5,2.8,4.1
	c0.3,5.3,0,10.6,0.2,15.9c0.1-12-0.1-23.9,0-35.9c0-15.2-0.4-30.4,0-45.6c-0.3-21.7-0.1-43.4-0.1-65.1c0-2.1-0.1-4.4,1.7-6
	c1,1.9,0.6,3.9,0.6,5.9c0.2,51.1,0.4,102.1,0.6,153.2c0,9.8,0.3,19.6,0.5,29.4C266.9,474.5,267.1,476.7,264.1,477.2z"/>
<path fill="#ABABAB" d="M261,416c0,11.1-0.5,22.3,0.2,33.4c0.4,7.3,0.8,14.5,0.8,21.8c0,2,0.1,4-1,5.8c-0.8-0.5-1-1.3-1-2.1
	c0-1,0-2,0-3c-0.4-33.9-0.1-67.8-1.3-101.7c-0.8-24.4-0.1-48.9-0.9-73.3c-0.2-6.6-0.5-13.3-0.9-19.9c0.1-0.3,0.2-0.5,0.2-0.8
	c1,0,2-0.1,2.9-0.1c0.3,0.6,0.5,1.2,0.5,1.8c-0.5,27.9,1.2,55.8,1.3,83.8c0,7.8,0.9,15.6,0.7,23.4c-0.4,8.1,0.2,16.2,0.1,24.4
	C262.5,411.7,262.9,414.1,261,416z"/>
<path fill="#D9D9D9" d="M259.9,276.9c0-0.3,0.1-0.6,0.1-0.9c5.4-0.4,5.4-0.4,5.1,7.8c-0.1,20.2-0.1,40.4-0.2,60.7
	c0,3.5,0,7-0.1,10.4c-2.4,1.2-3.3-0.4-4.1-2.2c-0.3-0.6-0.3-1.3-0.2-2c0.7-24.2-1.5-48.3-1-72.5
	C259.5,277.8,259.8,277.4,259.9,276.9z"/>
<path fill="#E3E3E3" d="M270.2,267c-0.7,0.7-1.5,1.3-2.2,2c-0.9,0.9-2.5,1.7-2.6,2.6c-0.3,3.9-2.7,3.7-5.4,3.3
	c-1.9-6.6-0.6-13.4-1-20.1c-0.1-2.3,0.4-4.6-0.9-6.7c3.9-3.2,7.9-6,12.9-7.4c0.4,0.4,0.7,0.9,0.8,1.5c-0.2,6.2-0.3,12.3-0.2,18.5
	C271.5,262.9,271.1,265,270.2,267z"/>
<path fill="#7F7F7F" d="M320,259c-0.4-3,2.2-4.7,3.1-7.1c4.5-13.1,10.2-25.7,13.5-39.2c0.6-2.3,0.6-4.6-0.6-6.7
	c8.4-9.9,18.7-17.8,27.8-27c0,10,0.1,19.9,0.1,29.9c-1.6,2.5-0.4,5.4-1,8.1c-0.9,2-2.3,3.6-3.8,5.2c-11.3,11.2-22.5,22.5-33.8,33.8
	C323.8,257.3,322.7,259.5,320,259z"/>
<path fill="#A1A1A1" d="M331,209c-11.1,12.6-24,23.3-36,35c-1.5-1.6-0.9-3.4-0.3-5.1c4-12.8,7.7-25.8,18.2-35.3
	c8.7-8.5,17.3-17.1,26.8-24.7c2.3,1.5,0.4,3.1-0.3,4.2c-4.2,6.4-5.9,13.8-8.8,20.8C329.7,205.7,330.1,207.3,331,209z"/>
<path fill="#434343" d="M251,390c1.5,1.4,2.8,2.9,3-0.9c0.5-7,1.3-14.1,1-21.1c1.6,1.5,0.9,3.4,0.9,5.2c0,19.9,0,39.9,0,59.8
	c0,3,0.2,7.7-2.3,7.9c-3.2,0.2-1.9-4.6-2.3-6.9c-0.8-5.2-0.4-10.6-0.4-15.9C250.2,408.6,250.2,399.3,251,390z"/>
<path fill="#434343" d="M250,335c1.6,1.5,0.9,3.4,1,5.2c0.1,15.3,0,30.5,0,45.8c-0.3,0.5-0.7,0.4-1,0C250,369,250,352,250,335z"/>
<path fill="#4C4C4C" d="M250,385.9c0.3,0,0.7,0,1,0c0,1.3,0,2.7,0,4c0,9.3,0,18.7,0,28c-1.7-1.6-0.9-3.8-0.9-5.7
	C250,403.5,250,394.7,250,385.9z"/>
<path fill="#A6A6A6" d="M125.1,264.9c-0.4-1.8,0.9-2.7,2-3.8c0.7,0,1.3,0,2-0.1c-0.2,2.6,0,5.3-1,7.9
	C124.4,269.6,126.6,265.9,125.1,264.9z"/>
<path fill="#797979" d="M290,419c0-9.7,0-19.4-0.1-29.1c-1-9.9-0.2-19.9-0.4-29.8c-0.1-5.1-0.1-10.3,0-15.4c2-1.9,2.2,0.3,2.4,1.2
	c0.6,3.2,0.5,6.5-0.3,9.7c2.7-8.8,8.1-16.3,12.3-24.4c4-7.6,7.9-15.3,12-22.9c3.7-6.9,5.8-14.4,9.7-21.2c2.7-4.7,4.8-9.8,6.4-15.1
	c2.1-7,5.2-13.6,8.8-20c5-7.7,12.5-12.9,19.2-18.8c0.5-0.4,1.2-0.5,1.8-0.2c0,11.3,0,22.5,0.1,33.8c-1.8,4.1-0.7,8.5-0.8,12.7
	c-0.2,6.1-0.1,12.3-0.1,18.4c-3.1,1-5.2,3.3-6.3,6.1c-4.5,11-10.5,21.3-15.1,32.2c-2.6,6-5.8,11.5-9.5,16.8
	c-1.4,2.1-2.3,4.4-3.4,6.6c-5.2,9.8-11.8,18.7-17.8,28c-4.6,7.1-8.5,14.6-14.2,21C292.1,411.6,292.8,416.1,290,419z"/>
<path fill="#636363" d="M361.8,233.1c-6.8,6.1-14.1,11.6-19.9,18.8c-10,11.1-21.7,20.5-32.1,31.1c-1.6,1.6-3.4,3.2-5.9,3.6
	c-2.7-0.6-4.2-2.9-6-4.6c7.4-7.7,14.7-15.3,22.1-23c11.1-10.9,22.1-21.9,33.2-32.8c3.2-3.1,6.4-6.2,9.7-9.3
	C363.5,222.4,361.5,227.7,361.8,233.1z"/>
<path fill="#373737" d="M298.6,139.9c6-3.9,12.1-7.7,18.5-10.8c1.2,0.9,3.3,1.3,0.9,3.6c-3.6,3.5-6.7,7.5-10,11.3
	c0.7,0.7,1.9,0.9,2,2.1c0,2.7,3.2,1.2,4,2.9c-2.7,1.9-5.7,0.7-8.5,0.7c-2.5,0.1-5.1-1.7-7.5,0.4c0.4,0.6,0.7,1.1,1.1,1.7
	c-1.1,0.9-0.6,1.7,0.2,2.5c-0.5,2.7-2.5,4.5-4.1,6.5c-3.8,2.9-8-0.3-12.1,0.7c2.5,1.6,6.7,0.1,7.8,4.1c0.2,2-0.9,3.4-2.1,4.8
	c-1.2,1.5-3.8,2.4-2.2,5.1c-4.9,1.1-9.6-1-14.4-1.1c-2.6-0.3-3.9,1.7-5.6,3.1c-0.4,0.3-0.8,0.6-1,1c0.5-0.3,0.9-0.5,1.5-0.6
	c3.2,0.8,6.7,0.2,9.8,1.7c1.3,1.4-1,1.7-0.8,2.8c0.8,1.2,2.1,2.1,1.6,3.8c-1.7,2.3-3.7,2.3-5.7,0.4c0-1.6,1.1-1.2,2.1-1.2
	c-2.8,0-5.4-0.9-8.1-1.2c1.8,0.6,4.1,0.1,5.6,1.8c0.1,5.6-5.5,12-11.3,13c-1.8,0.3-3.6,0.2-5.4,0.8c-4.6,0.2-9.1-1-13.7-1.5
	c-1.5-0.2-3.1-0.1-4.6-0.8c-2.1-2.8,0.1-3.5,2.1-3.8c5-0.7,8.3-3.7,11.4-7.3c1.6-1.9,2.4-3.9,1.5-6.4c1.9-4.4,6-6.5,9.4-9.3
	C273.5,160.7,285.7,149.9,298.6,139.9z"/>
<path fill="#DBDBDB" d="M300.9,203.9c-1.1,1-2.2,1.9-3.3,2.9c-1.2,1.9-2.1,4.5-5.2,2.6c-1-5.1-0.8-10.3-2.2-15.4
	c1.7-3.9,5.8-5.2,8.7-7.8c11.6-10.2,23.3-20.2,35-30.3c1.3,2.6-1.2,4.2-2,6.1c-1,2.5-0.3,4.4,1.7,5.5c1.7,1,3.7,1.9,5.8-0.2
	c1.5-1.5,2.4-4.6,5.6-3.7c-0.3,3-2.9,4.3-4.8,6.1c-11.6,10.7-23.4,21.1-35.1,31.5C303.8,202.4,302.5,203.5,300.9,203.9z"/>
<path fill="#2A2A2A" d="M287,174.8c-1.2-0.9-3.7-1.3-1-3.5c1.7-1.4,3.8-2.7,4-5.4c5.3-2.7,10.7-3.9,16,0.1c0.1,2.7-1.3,4.7-3.1,6.5
	c-8.4,8.6-15.5,18.4-25.2,25.8c0,0,0.3,0.5,0.4,0.8c-0.6,2.4-2.7,2-4.4,2.3c-3.5,0-7.1,0-10.6,0c-2.9-0.2-6.1,0.6-8.2-2.5
	c6.4-0.6,11.5-3.2,14.7-9.1c0.7-1.2,1.3-2.2,1.3-3.6c0.3-0.5,0.6-0.5,0.9,0c2,0.9,4.1,2,5-1.3c0.6-0.6,1.3-0.9,2.1-0.9
	c-1.6-0.2-2.9-0.8-4-2c-0.3-2.1,1.4-0.6,2-1.2c2-1.7,4.4-0.8,6.6-0.8C287.1,180,288.3,178.1,287,174.8z"/>
<path fill="#C0C0C0" d="M274.2,200.1c1.4,0,2.9,0.1,4-1c0.9-0.1,1.8-0.1,2.7-0.2c2.9,1.3,2.3,4.1,2.4,6.4c0.2,3.7-0.3,7.6,1.9,11
	c-1.1,2.6-3.4,2.9-5.8,2.5c-2.7-0.5-2.7-3-2.8-5.1c-0.2-2.1-0.6-4.3-0.7-6.4c-0.2-3.3-1.8-4.3-4.9-3.7c-2.2,0.1-2.7,1.5-2.7,3.4
	c0,2.2-0.1,4.3,0.1,6.5c0.5,6.9-1.9,8.5-8.5,5.6c-0.4-1.2,0-2.5-1.2-3.6c-1.9-1.6-1.9-3.7-0.6-5.8c0.3-0.6,0.9-1.2,0.8-1.8
	c-1.2-7.1,3.8-7,8.4-7.3C269.7,200.3,272,201,274.2,200.1z"/>
<path fill="#F9F9F9" d="M284.9,215.9c-1.3-0.1-1.9-0.2-2.4-2c-1.3-5,0.8-10.3-1.6-15c3-1.7,5.8-3.9,9.2-4.8c3.4,1.9,2.3,5.4,2.8,8.2
	c0.4,2.6,0.1,5.3,0.2,7.9C291.9,214.3,289.1,216,284.9,215.9z"/>
<path fill="#313F53" d="M306,166c-5.3-2-10.7-0.3-16-0.1c-1.8-3.5-5.4-2.1-8.1-3c-0.9-0.3-2.3,0.2-2.3-1.2c-0.1-1.5,1.3-1.8,2.4-1.8
	c2.3,0,4.6,0,6.9,0.5c2.2,0.5,4.2,0.6,6.2-0.6c5.5-1.8,10.2,1.1,15,3C310.7,165.7,310.5,165.8,306,166z"/>
<path fill="#2E2E2E" d="M310,162.9c-5.3,0.6-9.8-3-15-3c0.8-2.3,2.6-3.9,4-5.9c3-3,6,1.2,9-0.1l0,0c1.6,0.8,3.8,0.4,5,2.1
	C312.2,158.4,309.6,160,310,162.9z"/>
<path fill="#285082" d="M298,150.1c0.2-3,2.5-2.1,4.1-2c4,0.1,7.9,1.4,11.9,0.9c2.1,1.6,4.9,0.4,7.1,2
	C313.3,152.6,305.7,150.5,298,150.1z"/>
<path fill="#557384" d="M310,146.1c-0.9-0.5-1.9-0.9-2-2.1c4.1,0.4,8.2,0.7,12.3,1.1c1.2,0.1,1.7,0.8,1.7,1.9
	C317.9,147.6,314,145.9,310,146.1z"/>
<path fill="#4C4C4B" d="M308,154c-3,2.6-6-0.9-9,0.1c-1.1-0.5-3,1.4-3.3-0.5c-0.2-1.9,2-1.5,3.3-1.8
	C302.2,152.1,305.3,152.2,308,154z"/>
<path fill="#4C4C4B" d="M313,156.1c-1.9-0.2-4.1,0.3-5-2.1c3.2-2.1,6.1,1.1,9.6-0.3C316.3,156.7,314.4,155.7,313,156.1z"/>
<path fill="#282828" d="M172,232c-10.9-1.4-21.6-3.5-32-7c3.5-2.2,8-3.5,8.7-8.7c0.2-1.9-4.1-7.8-5.9-7.3c-1.2,0.3-1.3,1.4-1.4,2.4
	c-0.2,2.7,0,5.3-0.1,8c-0.1,2,0.4,4.1-1.2,5.7c-1.7-0.2-3.6,0.5-5.1-0.9c1.6-2.5,1.9-5.1,1.3-8c-0.7-3.4-0.7-6.8-0.2-10.2
	c2.4,0.5,3.7-2.2,6.1-1.9c7.1,1.7,12.9,5.7,18.4,10.2c0.9,0.7,2,1.7,1.9,2.8c-0.4,3.1,1.9,2.6,3.6,2.9c2.3,0.5,2.8-0.9,3.2-2.7
	c0.2-1,0.1-2.5,1.9-2.3c2.1,2,1.3,4.6,1.5,7C172.1,225.3,173.1,228.7,172,232z"/>
<path fill="#09111D" d="M172,232c-1.7-3.2-0.7-6.7-1-10c0.9-0.9,2-1.1,3.2-0.8c11.3,2.5,22.8,3.7,33.9,7.1c0.8,0.5,1.4,1.2,1.8,2.1
	c0.7,1.9,0.7,3.9,0.4,5.8c-0.4,2.5-1.6,4-4.3,2.8C194.5,237.1,183.1,235.1,172,232z"/>
<path fill="#090E13" d="M224.9,243c-2.4,0.2-4.7-0.3-6.9-1.1c-2.6-0.6-3.3-2-1.7-4.2c1-1.3,2.1-2.6,3-4c3-3.5,5.4-7.4,8.3-10.8
	c4.4-2.1,8-0.4,11.6,2c0.8,0.6,1.6,1.3,2,2.3c-0.1,0.7-0.4,1.3-1.1,1.5c-4.7,1.4-6.2,4.9-6.3,9.3C233.8,238,224.9,243,224.9,243z"/>
<path fill="#0E0E0E" d="M135.9,205.9c1.7,5.2,1.7,10.5,2,15.9c0.1,2.2-1.6,2.2-3.1,2.3c-5.8-1.1-11.5-2.2-18.7-3.5
	C123.4,215.2,129.6,210.5,135.9,205.9z"/>
<path fill="#080B0D" d="M252.9,248.9c-0.3,0.1-0.5,0.2-0.8,0.2c-1.4-0.4-2.7-0.8-4.1-1.2c-1.8-0.4-2.9-1.3-1.9-3.4
	c1.2-2.2,2.6-4.3,4.3-6.1c1.4-1,2.3-3.1,4.6-2.5c0.4-0.3,0.9-0.4,1.2-0.8c4.5-5.7,7.5-6.2,13.8-2.1c0.3,2-1.7,2.4-2.6,3.7
	C262.9,241.1,258.4,245.6,252.9,248.9z"/>
<path fill="#3B3B3B" d="M170,215c0,0.5,0.1,1,0,1.5c-0.4,1.8,1.2,4.8-1.4,5.1c-2.6,0.3-5.4-1-8.2-1.6c1.2-1.9,1.1-3.3-0.8-5.1
	c-4.3-4-9.7-6.1-14.7-9c-1-0.6-1.9-1.2-2.9-1.8c1.8,0.7-2.2-5.5,2.3-1.9c0.6,0.5,0.1-2.9,2-3.4c0.5-0.1,0.9,0.1,1.2,0.4
	c0.6,2.6,2.4,3.8,4.8,4.5c1.9,2.2,5,2.1,7.3,3.6c3.3,2.3,7.7,2.2,10.8,4.9C170.9,213.1,170.8,214.1,170,215z"/>
<path fill="#282828" d="M220,234.1c0,1.9-1.4,2.9-2.6,3.9c-2,1.7-0.7,2.7,0.6,3.8c-4.1-0.6-8.3-1-12.1-2.8c2.2,0.1,3.2-0.9,3.1-3.2
	c-0.1-1.9,0-3.9,0-5.8c3.4-2.1,6.6-0.6,9.8,0.6C220.2,231,221,232.4,220,234.1z"/>
<path fill="#AAAAAA" d="M147,199c-0.2-0.1-0.5-0.2-0.7-0.2c-0.1-0.3-0.2-0.5-0.3-0.8c2.5-4.3,3.1-9.3,4.9-13.9
	c1.6,0.3,3.3,0.6,4.9,1c1.6,1.7,0.3,3.4-0.1,5c-0.9,3.3-1.8,6.6-1.7,10.1c-0.6,0.5-1.3,0.7-2.1,0.7C150.1,200.7,148.4,200.3,147,199
	z"/>
<path fill="#1C2225" d="M246.9,244.9c-0.9,1.5,0.3,2.2,1.1,3c-7.7-1.4-15.5-2.4-23.1-4.9c0.7-4.9,5.8-2.7,8-5
	c0.4-0.3,0.8-0.3,1.2-0.1c0.8,3.2,2.5,5.5,6.2,5.6C242.5,244.2,245.3,241.9,246.9,244.9z"/>
<path fill="#D7D7D7" d="M163,236c0.5-0.9,1.5-1,2.4-1.2c13.5,2.8,27.1,5.6,40.6,8.4c0.2,0.2,0.3,0.4,0.2,0.6
	c-0.1,0.2-0.1,0.3-0.2,0.3c-3.1,0.4-6-0.8-9-1C185.8,240.2,174.5,237.7,163,236z"/>
<path fill="#D4D4D4" d="M206,244c0-0.3,0-0.6,0-0.9c11.3,2.3,22.6,4.7,33.9,7c-2.4,2-4.8,0.3-7.1-0.2C223.8,248.2,214.7,247,206,244
	z"/>
<path fill="#2E2E2E" d="M300.9,203.9c12.2-11,24.4-22,36.5-33.1c2.6-2.3,5-4.8,7.6-7.2c5.7-4.9,11.3-9.8,17-14.7
	c0.4,3.6-2.6,5.2-4.7,7.1c-9.1,8.3-18.4,16.5-27.6,24.8c-8.2,7.4-16.3,14.9-24.4,22.5C303.7,204.7,302.5,205.1,300.9,203.9z"/>
<path fill="#3569B3" d="M298.6,139.9c-4.2,6.4-10.9,10-16.4,14.8c-9.9,8.6-20.1,16.9-30.1,25.3c-4,5.6-8.4,10.3-16.4,8.2
	c-4.3-1.1-8.9-1.1-13.2-2.7c-1.5-3.2,1.7-3.5,3.1-4.9c1-0.3,2-0.2,2.9-0.1c9,3,16.3,0.5,22.5-6.6c1.8-2,4.2-3.7,6.4-5.5
	c5.5-4.4,11.3-8.4,16-13.8c1-0.9,2.1-1.7,3.2-2.6c4.2-3.1,8.4-6.3,13-8.9c2.4-1.2,4.7-2.5,7.3-3.2C297.5,140.1,298,140,298.6,139.9z
	"/>
<path fill="#7998CC" d="M297,140.1c-2.1,1.8-4.3,3.4-7,4.1c-6.1-0.5-12.1-1.5-18.2-1.9c-1.5,0-3-0.2-4.1-1.3c-0.5-2.1-0.8-4,2.4-3.1
	c6.3,0.3,12.6,0.7,18.9,1C291.6,139.9,294.3,140.1,297,140.1z"/>
<path fill="#D5D6D6" d="M236,196.8c1.6,0.1,3.3,0.2,4.9,0.3c-1.1,3.2-3.8,2.1-5.8,1.8c-4.8-0.6-9.5-1.5-14.2-2.1
	c-1.7-0.2-3.3-0.4-4.9-0.1c-2.9,0.6-4.7,2.2-5.3,5.2c-0.6,2.9,1.5,3.7,3.5,4.7c1.3,0.7,3.1,1.3,2.7,3.1c-0.3,1.4-2,1.5-3.3,1.6
	c-13.7-1.5-27.1-4.5-40.6-6.6c-4.2-0.7-8.5-1.4-12.7-2.3c-1.3-0.2-2.6-0.4-3.5-1.6c-0.1-3.6,3.4-5.7,3.9-9.2
	c0.3-2.3,0.4-4.1-1.7-5.6c0-0.4,0-0.7,0-1.1c0.7-0.1,1.3-0.1,2-0.2c4.3-1.6,8.5-0.4,12.7,0.3c4.3,1,8.8,1.2,13.1,2
	c4.3,1,8.6,1.4,12.9,2c3.5,0.7,6.9,1.3,10.5,1.6c7.2,1,14.3,2.9,21.5,3.9C233.5,194.8,235,195.3,236,196.8z"/>
<path fill="#3D6EB6" d="M211,132c2.6,0,5.3,0.1,7.9,0.1c3.2,1.6,6.7,0.7,10,1c3.2,1.7,6.7,0.7,10,1c0.1,0.3,0.2,0.6,0.2,0.9
	c-1.1,1.4-3,1.7-4.4,2.8c-1.5,0.6-3,0.6-4.5,0.7c-2.8,0.1-5.6-0.3-8.3-1.1c-5.9-1.6-11-0.7-15.5,3.6c-1.3,1.2-3,2.1-4.2,3.5
	c-1.3,1.4-2.9,2.6-4.6,3.4c-2.7,1.1-4.8,3.1-7.1,4.8c-1.6,1.6-3.4,2.9-5.2,4.2c-2.4,1.7-4.6,3.7-7.2,5.1c-3.3,1.2-5.6,3.5-7.3,6.5
	c-1.4,0.9-3.2,0.9-4.7,2.5c4.1,1.7,8.4,1.4,12.4,2.3c5.5,1.4,11.1,1.3,16.6,2.4c1.8,0.4,3.6,0.6,4.9,2.1c0.8,1.6,0.1,2.8-1.1,3.8
	c-3.4,1.6-6.7,0-10.1-0.1c-4.7-0.6-9.3-1.8-14-2c-4.5-0.3-9-0.7-13-3.3c-2.3-0.7-6,1.1-6.8-1.5c-0.8-2.5,3-3.3,4.8-4.7
	c6.9-5.4,14-10.6,21-15.9C191.3,147.1,201.2,139.6,211,132z"/>
<path fill="#272728" d="M162,176.1c4.5-0.4,8.5,2.3,13,2c1,2.4-1.5,5.1,0.9,7.6c0.5,0.5-1.2,0.8-2.1,0.5c-4.2-0.5-8.5-1-12.7-1.4
	c0.4-0.5,0.7-1,1.1-1.4C155.7,181,160.9,178.5,162,176.1z"/>
<path fill="#5B84C2" d="M235,136.9c0.4-2.7,2.6-1.6,4.1-2c6.3,0.3,12.6,0.7,18.9,1c3.9,1.4,7.9,1,11.9,1.1c0.1,0.3,0.1,0.6,0.2,0.9
	c-2,0.1-2.2,1.4-2.1,3c-2.3,1.9-4.9,0.3-7.3,0.4c-5.6-0.7-11.1-1.6-16.7-1.9C240.8,139.2,237.6,139.4,235,136.9z"/>
<path fill="#C2C2C2" d="M159,186c3.4-0.3,4.2,0.8,3.2,4.3c-1.1,3.8-2.1,7.5-5.4,10.1c-1.1,0.5-2,0.5-2.8-0.5c-1.5-1-1.9-2.2-1.2-4.1
	c1.3-3.5,2-7.1,3-10.7C156.9,185.4,158,185.7,159,186z"/>
<path fill="#A6A6A6" d="M312.8,203.6c0.2,1.5-0.4,2.5-1.5,3.5c-10.2,9.6-12,23.1-16.4,35.4c-0.2,0.4,0,1,0,1.5
	c-8.7,7.3-15.5,16.4-24.8,23.1c0-8.8-1-17.6,0.8-26.4c0.4-3.4,3.1-4.6,5.7-5.8c6.2-3.6,11.2-8.7,16.3-13.5
	C299.5,215.2,305.7,208.9,312.8,203.6z"/>
<path fill="#323232" d="M284.9,215.9c3.1-1.4,5.8-3.3,8.1-5.8c1.5-1.1,3-2.2,4.5-3.3c1.1,0.2,2.8,0.3,1.1,1.9
	c-3,2.9-5.5,6.5-9.6,8.3c-3.4,3.1-8.6,3.5-11.1,7.9c-4.3,1.2-8.9,1.6-13,3.9c-1.3,0.7-3.5,0.8-5-0.8c3.4-1.9,6.9-3.4,8.4-7.7
	c0.9-2.5,0.7-4.7,0.6-7.2c-0.1-3.7-2.1-7.9,2-11c4.4-1.4,6.9-0.4,6.3,4.8c-0.2,1.8,0.4,3.6,0.5,5.4
	C278.1,219,278.9,219.4,284.9,215.9z"/>
<path fill="#4D4D4E" d="M271,202.1c-1.8,3.6-1.5,7.6-0.6,11.1c1.3,4.6-1.1,7.9-2.8,11.5c-1.4,2.9-4.4,3.7-7.7,3.3
	c-0.3,0.3-0.7,0.6-1,0.8c-3.4,0.1-5.8-1.8-8.3-3.8c0.5-1.8,1.2-3.6,1.8-5.4c0.6-1.2,1.5-2.2,2.8-2.6c1.7-0.3,3.3-0.4,4.6,1
	c1.3,1,2.8,0.9,4.2,1c2.6,0.3,4-0.3,3.4-3.6c-0.6-3-0.3-6.2-0.5-9.4C266.8,203.2,267.9,201.7,271,202.1z"/>
<path fill="#14495A" d="M255,235.9c-1.3,1.1-2.6,2.1-3.9,3.2c-1.2,0.2-2.1,0.9-2.5,2c-0.9,2.7-2.9,2.6-5.1,2.1
	c-2.9-1.7-4.9-3.9-4.7-7.5c-0.9-5.2,2.1-7.5,6.5-8.8c3.6-1.3,9.9-0.2,12,2.3c0.5,0.5,0.2,1.2-0.1,1.8c-0.7,1-1.3,2-2,3
	c-4.5-2.9-6-3.2-11.4-2c3.5,3.5,7.6,2,11.4,2C255,234.7,255,235.3,255,235.9z"/>
<path fill="#262F32" d="M257,231c-2.5-3.4-7.5-4.7-12.1-3c-1.6,0.9-2.8-0.1-4-1c-0.8,0-1.5-0.2-2-1c3.5-5.4,5.7-6.6,10.5-5.6
	c0.9,1.4,1.6,3,1.5,4.7c3.4-0.4,5.1,2.9,8,3.8C258.7,229.9,258,230.6,257,231z"/>
<path fill="#424242" d="M276.7,234.8c-1.9,1.9-3.8,3.9-5.7,5.8c-0.3,0.1-0.7,0.2-1,0.4c-2.6-0.7-2.1-3.3-3-5c1-1,2-2,3-3
	C272.5,232.6,274.6,233.7,276.7,234.8z"/>
<path fill="#585858" d="M278,224.9c0.1-1.2-1.3-2.9,0.5-3.5c3.7-1.1,6.7-3.8,10.6-4.4C286,220.6,283.2,224.5,278,224.9z"/>
<path fill="#525252" d="M267,236c2.3,0.9,2.1,3.3,3,5c-3.2,3.7-7.7,5.3-11.9,7.1c-1.7,0.3-3.4,0.5-5.1,0.8
	C257.1,244,262.3,240.3,267,236z"/>
<path fill="#05172C" d="M192.9,279.9c-0.3,3,1.1,6.2-1,9.1c-1-0.4-2-0.7-3-1.1c-3-2.1-6.9-1.9-10-4c-2-2.7-5-3-8-3
	c-5.7-0.8-11.2-2.4-17-3c-0.7-0.7-1.3-1.4-2-2.1c-0.6-5.1,0.1-10.1,1.9-14.9c6.8,1.3,13.5,2.6,20,5c-4.3,4.9-4.1,5.3,1.7,7.6
	c4,1.5,8,2.9,12.3,3.7C189.9,277.6,191.9,277.9,192.9,279.9z"/>
<path fill="#102749" d="M154,261c0.4,5.1-0.2,10.1-1.9,14.9c-1.9-1-4-1-6.1-0.9c-2.5-5.3,0.1-11-1.5-16.7
	C148,259.1,151.2,259.2,154,261z"/>
<path fill="#0E2342" d="M154,278c6.1-1.7,11.6,0.2,17,3c-1.4,5-4.6,5.3-8.6,3.2C159.3,282.5,153.8,284.1,154,278z"/>
<path fill="#0F2647" d="M179,284c3.7,0.3,7.8-0.3,10,4C184.4,291.6,180.7,290.1,179,284z"/>
<path fill="#434343" d="M290.9,343.9c-1.4,1.6-0.8,3.5-0.8,5.3c-0.1,13.6-0.1,27.2-0.2,40.8c-1.6-1.7-0.9-3.8-0.9-5.7
	c-0.1-26.4-0.1-52.9-0.1-79.3c0.1-1,0.1-1.9,0.2-2.9c2.1-1.2,3.5-0.4,4.4,1.7c-1.5,11.2-0.8,22.4-1,33.6
	C292.4,339.6,292.8,342,290.9,343.9z"/>
<path fill="#373737" d="M176.1,250.8c-1.3-0.6-3.7,0.1-4-2.4c-0.1-0.9,0.8-1.5,1.7-1.2c1.6,0.5,3.9,0.1,4.3,2.5
	C178.1,250.5,177.3,251,176.1,250.8z"/>
<path fill="#010B16" d="M192.9,279.9c-6.4-2.1-13.1-2.9-19.3-5.8c-1.7-0.8-4.6-0.4-4.3-2.9c0.3-2.4,1-5.4,4.7-5.2
	c4.3,0.9,8.6,2.3,12.9,2.7c5.1,0.5,6.8,3,6.1,7.8C192.9,277.6,193,278.8,192.9,279.9z"/>
<path fill="#5D5D5D" d="M292.9,303c-1.3-0.3-2.6-0.6-3.8-0.9c1.3-7.4,3.3-14.5,8.8-20.1c3.3-0.6,3.6,3.4,6.1,4
	c0.5,1.3-0.3,2.3-1,3.1c-3.2,3.4-5.5,7.4-7.4,11.6C295,301.7,294.8,303.4,292.9,303z"/>
<path fill="#CDCDCD" d="M259.9,276.9c-0.3,23.9,1.7,47.8,1.1,71.7c-0.1,3,0,5.8,3.9,6.4c0,15.3,0,30.7,0.1,46
	c-3.4,0-3.2-2.7-3.4-4.8c-0.4-3.7,0.5-7.5-0.6-11.1c-0.9-22.7-0.6-45.4-1.3-68.1c-0.3-11.6-0.4-23.2-0.7-34.8
	C259,280.4,258.4,278.4,259.9,276.9z"/>
<path fill="#C3C3C3" d="M261,385c2,2.9,0.7,6.1,1,9.1c0.2,2.7,0.4,5.3,3,6.9c0,12.1,0.1,24.3,0,36.4c0,1.2,1.1,3.6-1,3.6
	c-2.3,0.1-1.9-2.3-1.9-3.9c0-5.5,0-11,0-16.5c0-1.6,0.5-3.4-1-4.7C261,405.6,261,395.3,261,385z"/>
<path fill="#848484" d="M292.9,303c3-6.1,6.1-12.2,11.1-17c11.3-9.2,21.6-19.5,32-29.6c1.8-1.7,3.6-3.5,5.9-4.4
	c-0.8,4.3-3.7,7.6-5.3,11.6c-2.8,7.2-4.4,15-8.5,21.4c-4.1,6.5-6.5,13.7-9.5,20.6c-3.1,7.1-7.8,13.3-10.6,20.6
	c-2.8,7.2-6.9,14-11.4,20.2c-2.6,3.7-2.5,8.2-5.9,12.9c0-6,0-10.7,0-15.4c0-10.8,0.1-21.5,0.1-32.3C291,308.6,291.9,305.8,292.9,303
	z"/>
<path fill="#CACACA" d="M259.8,218.1c-1.6-0.1-3.1-0.1-4.7-0.2c-3.4,0.5-6.8,0-10.2-0.6c-8.8-1.5-17.5-3.2-26.3-4.7
	c-1.8-0.3-4.1,0-4.7-2.6c0.8-0.2,2.1-0.3,2.2-0.6c0.2-1-0.8-1.1-1.6-1.4c-6.6-2.4-7.4-3.7-4.3-9.4c2-3.8,6.2-3.9,10-3.3
	c5.2,0.8,10.3,1.9,15.5,2.6c1.7,0.2,3.6,0.7,5.2-0.7c4.7,0.6,9.4,1.2,14.1,1.7c2.5,1.2,5.1,1.2,7.7,1.2c1.3,0.9,3.1-0.3,4.2,1
	c-0.7,0.8-1.7,0.9-2.7,0.9c-2.8-0.1-5.2,0-3.5,4c0.5,1.1,0.3,2.4-0.6,3.2c-3.1,2.9-2.5,5,1.3,6.6c0.6,0.2,1.4,0.6,1,1.4
	C261.9,218.3,260.7,217.8,259.8,218.1z"/>
<path fill="#3E3E3E" d="M236,196.8c-8.6-1.7-17.3-3.3-25.9-5c1.6-4.7,6.7-4.8,9.9-7.4c0.7-0.2,1.5-0.2,2.1,0.3
	c4.9,0.8,9.9,1.2,14.7,2.3c4.2,1,7.3-0.1,10.1-3.2c1.4-1.6,3.4-2.6,5.2-3.8c1.8,1.4,2.4,2.7,0.7,4.9c-3.9,5-7.6,10-14.8,10.1
	C236.8,195,236.2,195.7,236,196.8z"/>
<path fill="#3D659D" d="M287,174.8c1.2,0.6,4.1-0.3,3.4,1.4c-1,2.5-3,5.2-6.5,5.1c-2.3,0-4.6-0.4-6.9-0.6c-3.6-0.7-7.3-1.3-10.9-2
	c0.6-2.8,3.9-3.4,4.8-5.8C276.3,173.7,281.7,174.3,287,174.8z"/>
<path fill="#5F8397" d="M271.9,186.2l-0.5-0.1c0,0-0.5,0-0.5,0c-2.9-0.5-5.7-1.1-8.6-1.6c4.4-1.2,8.5,0,12.9,0.8
	C274.3,186.7,273,185.8,271.9,186.2z"/>
<path fill="#1B5492" d="M271,173.1c0.6,3.7-2.7,4.4-4.8,5.8c-0.7-0.1-2.2,0-1.3-1C266.5,176,267.9,173.4,271,173.1z"/>
<path fill="#5A5957" d="M275,182c2.3,0.5,4.6,1.3,7.7,0.8c-1.7,3.1-4,1.8-5.8,2.1C276.9,183.7,273.4,184.6,275,182z"/>
<path fill="#646363" d="M272.6,182.5c-2.9,1.3-4.9-0.6-7.1-0.8C267.7,180.9,270,180.8,272.6,182.5z"/>
<path fill="#373737" d="M267,201.1c-1.4-0.3-2.8-0.7-4.2-1c3.8,0,7.6,0,11.5,0C272,201.7,269.3,200.6,267,201.1z"/>
<path fill="#111111" d="M140,225c0-4.8,0.1-9.6,0-14.4c0-1.6,0.4-3.1,1.9-3.8c1.6-0.8,2.2,1,3.2,1.8c1.1,1,2.7,1.9,3,3.2
	c0.5,1.8,7.9,3,0.7,5.6c1.6,3.8-1.7,4.6-3.7,6.2C143.5,224.9,141.8,225,140,225C140,225,140,225,140,225z"/>
<path fill="#123055" d="M170,215c0-1,0-2,0-3c-1.3-4.2-0.7-4.8,3.6-3.8c2.6,2.6,4,5.8,4.8,9.3c-0.1,0.5-0.2,0.9-0.5,1.3
	c-1.3,2.3,1.1,1.4,1.6,1.5c7.5,1.5,14.9,3.2,22.5,4.5c2,0.3,4,0.5,5.7,1.6c0.4,0.3,0.7,0.7,0.8,1.2c0,0.5-0.1,1-0.5,1.4
	c-11.5-2.2-23-4.4-34.6-6.6c-0.8-0.2-1.6-0.2-2.5-0.2C170.6,219.7,171.8,217.1,170,215z"/>
<path fill="#383838" d="M208,228.9c0-0.3,0-0.6,0-0.9c0.2-2.6-1-5.2,0.4-7.7c0.2-0.3,0.4-0.7,0.7-0.6c6.5,0.4,13.3-0.5,18.8,4.3
	c-2.2,3.7-4.5,7.3-7.9,10.2c-0.2-3.5-2.8-3-5.1-3.2c-2-0.2-3.9-0.6-5.9-0.9C208.7,229.6,208.3,229.3,208,228.9z"/>
<path fill="#343945" d="M207.4,235.3c-2.4,2.2-4.8,1.6-7.8,1.6C202,234.9,204.3,234.7,207.4,235.3z"/>
<path fill="#4E4E4E" d="M227.9,223.9c-6.1-2.2-12.6-2.3-18.8-4c-1.2-0.7-1.2-2.1-2.1-3c-9.1-2.8-18.5-3.9-27.8-5.5
	c-2-0.3-4-0.3-5.2-2.4c-3-1.3-4.5-0.6-4,2.9c-3.9-0.6-7.8-1.4-11-4c-0.6-2.4-0.6-4.7,1-6.8c14.2,2.4,28.5,4.9,42.7,7.3
	c3.7,0.6,7.4,1.8,11.3,1.6c12.5,3,25.3,4.6,38,6.9c1.1,0.2,2.2,0.6,3.3,0.9c-0.7,0.7-1.4,1.4-2.1,2.1c-1.6-0.5-2.5,1.5-4.1,1.1
	c-4.9-1.5-6.6,3.5-10,4.9C235.6,223.8,232.1,221.8,227.9,223.9z"/>
<path fill="#06252D" d="M241,227c1.3,0.3,2.6,0.7,4,1c-4.2,1.1-5.8,3.8-5,8c-1.5,2.2-3.2,3.7-5.9,2c-0.3,0-0.7,0-1,0
	C231.5,231.3,235.7,228.8,241,227z"/>
<path fill="#364D54" d="M243.9,242.9c1.7-0.1,3.5,0.2,3.8-2.5c0.2-2,1.6-2.3,3.3-1.4c-1.4,1.9-2.8,3.8-4.1,5.8
	c-2.3-1.5-4.6,0.8-6.9,0.1c-0.4-0.9-1.8-2-0.8-2.9C240.9,240.5,242.4,242.3,243.9,242.9z"/>
<path fill="#262626" d="M159.9,201.2c0,2.3,0.5,4.7-1,6.8c-2-1.9-6.6,0.6-7-4c-1-1.3-1.1-2.7,0-4c0.7-0.1,1.4-0.1,2-0.2
	c0.9,0.2,1.9,0.3,2.8,0.5C157.9,200.6,158.9,200.9,159.9,201.2z"/>
<path fill="#555555" d="M152,200c0,1.3,0,2.6,0,4c-4.1,0.8-5.6-1-5-5C148.7,198.9,150.5,199,152,200z"/>
<path fill="#1D343B" d="M243.9,242.9c-0.9,1.5-5.2-3.6-4,2c-3.7-0.8-7.5-1.6-6-7c2.3,0.2,4-1.2,5.9-2
	C239,239.7,242.9,240.5,243.9,242.9z"/>
<path fill="#523E87" d="M200,178c-7.2-2.2-14.9-1.2-22-3.9c0.2-0.2,0.3-0.4,0.5-0.6c1.6-0.9,3.3-1.2,5.1-1.1
	c5.7,0.9,11.4,1.8,17.1,2c5,1.5,10.1,1.8,15.2,2.7c1.7,0.3,2.9-0.3,4-1.4c1.4-1.2,2.9-2.3,4.4-3.3c0.5-0.4,1-0.8,1.6-1.2
	c2.1-1.5,4.3-3,6.1-4.9c0.6-0.7,1.1-1.3,1.8-1.9c1.9-1.5,4.3-2.1,5.8-4c1.8-1.3,3.6-2.5,5.1-4.1c3.2-1.8,5.3-5.2,9.3-5.6
	c0.9,0.5,1.4,1.2,1.5,2.2c-1.5,4.3-6.1,5.5-8.7,8.6c-1.5,1.4-3.1,2.6-4.5,4c-3.6,2-6.5,4.8-9.7,7.3c-2,1.9-4.5,3.2-6.6,5.3
	c1,1.4,2.8,0.5,3.8,1.4c0.4,0.3,0.6,0.7,0.6,1.2c-0.4,1.1-1.7,0.6-2.3,1.2c-0.7-0.2-1.4-0.5-2.1-0.7c-0.8,0.3-1.5,0.9-2.3,0.8
	C215.7,181.2,207.5,181.4,200,178z"/>
<path fill="#D2987F" d="M246,161c3-2.7,5.9-5.4,8.9-8.1c2.7-4.7,7.1-3,11-2.9c2,0.7,4.2,0.5,6.2,0.6c1.9,0.2,4,0.2,4.9,2.4
	c-0.6,1.2-1.6,1.7-2.8,2c-2.4,1.8-3.8,5.6-7.9,4.4c0,0,0,0,0,0.2c0.2,1.9,0.2,1.9-2,3.7c-1.2,0.1-2.3-0.3-3.4-0.7
	c-2.1-1.1-4-2.5-6.5-0.1c-1.4,1.3-4.1,1.5-5.2-0.5C248.3,160.2,245.8,164.7,246,161z"/>
<path fill="#6D5B99" d="M277.1,153.1c-3.5-2.2-7.7,0-11.2-2c1.4-3.7,3.5-7,6.1-10c6,0.8,12.4-0.3,18,3.1
	C285.7,147.2,281.4,150.1,277.1,153.1z"/>
<path fill="#4D7BBC" d="M200,178c8.6,1.1,17.3,2.1,25.9,3.2c-0.8,1.7-2.5,2.4-3.9,3.5c-0.7,0.1-1.4,0.2-2,0.2
	c-6.1,1.1-11.9-1.5-17.9-1.7c-1.4-0.3-2.9-0.3-3.2-2.1C199.3,180.1,199.6,179.1,200,178z"/>
<path fill="#353769" d="M228,181.9c0.7-0.4,1.4-0.7,2.1-1.1c2.2-1.6,4.6-1,7-0.5c2,0.4,3.8,0.5,5.4-1.1c0.3-0.3,0.7-0.6,1-0.8
	c1.8-1.2,3.6-2.3,4.9-4.2c3-1.8,5.2-4.8,8.8-5.8c0.5,0.1,0.8,0.4,1,0.8c-4.5,5.1-10.4,8.6-15.3,13.2c-2.7,2.5-5.7,0.3-8.5,0.4
	C232.2,182.8,230.1,182.2,228,181.9z"/>
<path fill="#424268" d="M264,162.9c1.1-0.9,1.2-0.9,1.2-3.1c0-0.7,0.2-0.7,0.6-0.6c3.8,0.7,5.5-3,8.5-4.1
	c-4.2,6.1-10.3,9.9-16.1,14.1c-0.1-0.1-0.2-0.3-0.3-0.4c-0.2-1.5,0.9-2.4,1.7-3.4C260.8,164.2,262.1,163,264,162.9z"/>
<path fill="#5E498F" d="M272,141.1c-0.8,4.1-3.1,7.2-6.1,10c-3.7,0.2-7.7-1.1-10.9,1.8c-0.3-0.7-0.7-1.3-1-2
	c-0.3-0.4-0.5-0.8-0.4-1.3c1.8-3.7,4.2-7,7.5-9.5c2.4,0.3,4.7,0.6,7.1,0.9C269.3,141,270.6,141,272,141.1z"/>
<path fill="#575758" d="M202,182.1c6.1,0.2,12.1,1.3,18,2.8c-2.6,3.4-7.2,3.8-10,6.9c-3.5,0-7-0.6-10.3-1.7
	C198.6,187,199.7,184.4,202,182.1z"/>
<path fill="#484848" d="M202,182.1c-0.8,2.7-1.5,5.4-2.3,8.1c-4.4-0.3-8.7-0.8-12.9-2c-2.9-3.6-0.9-6,2.2-8.1
	c3.3,0.4,6.7,0.7,10,1.1C199.7,182.3,200.9,181.9,202,182.1z"/>
<path fill="#343435" d="M188.9,180.1c-1,2.6-3.9,4.7-2.2,8.1c-4.4-0.3-8.8-0.8-13-2.1c0.3-0.1,0.6-0.2,0.9-0.2
	c-3.6-2.7-0.6-5.2,0.3-7.8C179.7,178,184.3,179.3,188.9,180.1z"/>
<path fill="#989391" d="M192.1,203c-4.8-0.9-9.5-1.7-14.2-2.7c-1.1-0.2-2.4-0.8-1.7-2.4c0.5-1.2,1.6-1,2.6-0.6
	c4.4,1.7,9.1,1.5,13.6,2.6c1.1,0.3,2.6,0.2,2.4,1.8C194.6,203.4,193.1,202.8,192.1,203z"/>
<path fill="#97C0D4" d="M195.3,197.9c-5.1,0.3-10-1.2-14.9-2.3c-0.6-0.1-1.1-0.7-0.9-1.5c0.2-0.8,0.9-1,1.5-0.9
	c4.9,0.9,9.8,1.9,14.7,2.9C195.5,196.7,195.4,197.3,195.3,197.9z"/>
<path fill="#31296B" d="M200.8,144.3c6.1-7.5,13.5-11.3,23.3-8.1c2,0.7,3.9,0.6,5.8,0.7c-1.1,7.5-3.8,10-11,10.4
	c-0.8,0.1-1.7,0-2.5,0C211.3,146.2,205.6,147.6,200.8,144.3z"/>
<path fill="#422B7D" d="M218.9,146c7.5,1.7,8-5.3,11-9c1.7,0,3.4,0,5-0.1c3,0.4,6,0.8,9,1.2c5,1,5.1,1.2,2.3,5.7
	c-1.6,2.6-3,5.6-6.9,5.5c-2.8,0-5.7,0.2-8.5-0.3c-2.5-0.9-5.2-0.5-7.8-0.7C221.5,148.2,219.4,148.6,218.9,146z"/>
<path fill="#20A0AC" d="M200.8,144.3c5.4,0.6,10.8,1.2,16.3,1.8c0.3,2-1,3.2-2.4,3.9c-3,1.5-0.6,2.7,0,4c-0.4,2.5-0.3,5-0.9,7.4
	c-0.7,0.4-1.4,0.6-2.1,0.8c-3.3,0.2-6.6,0.2-8.9-2.8c-0.8-3.6,1.8-4.4,4.3-5.5c-4.2-1-8.9,0-12.9-2.5c-0.8-2.8,1.7-3.3,3.3-4.4
	C198.5,146.1,199.7,145.2,200.8,144.3z"/>
<path fill="#90368C" d="M178.2,161c2.2-1.7,4.4-3.3,6.6-5c5.5,1,11.1,1,16.5,2.3c1.5,1,0.7,2-0.2,2.7c-1.5,1.3-3.2,2.4-4.8,3.6
	c-1.6,1-3.1,2.1-5,2.5c-4.4,1-8.6-1-12.9-0.8c-1.1,0-2.2-0.2-3.1-0.8C173.9,162.5,176.9,162.3,178.2,161z"/>
<path fill="#C86E46" d="M202,159c-5,0.5-9.8-1.3-14.7-1.1c-1.3,0-2.2-0.6-2.5-1.9c1.7-1.3,3.3-2.7,5-4c1.4-0.5,2.5-2.2,4.3-1
	c4.7,0.6,9.4,1.3,14.1,1.9c-1,3-5,3-5.4,6.1C202.6,159.3,202.3,159.3,202,159z"/>
<path fill="#333643" d="M178,174.1c-4.7-0.6-9.5-1.1-15-1.8c2.6-3.1,4.7-4.8,8-4.4c1.6-1.8,3.7-1.7,5.8-1.5c1.7,0.5,4-0.1,4.4,2.6
	c-0.5,0.5-1.2,0.7-1.9,0.5c-1.4-0.3-2.7,0.4-4.7-0.4c1.8,0.9,3,0.2,4.2,0.4c2.7,1.8,1.3,2.9-0.6,4C178,173.7,178,173.9,178,174.1z"
	/>
<path fill="#373B6E" d="M176,167.3c-1.7,0.2-3.4,0.4-5.1,0.6c0.2-4.6,4.1-5.5,7.3-6.9c-1.1,1.3-2.2,2.5-3.2,3.8
	C174.3,166,177.7,165.7,176,167.3z"/>
<path fill="#343E67" d="M194.1,150.9c-1.4,0.3-2.9,0.7-4.3,1c2.3-2,4.3-4.5,7.6-5C196.5,148.5,194.5,149,194.1,150.9z"/>
<path fill="#523C88" d="M239.9,148.1c4.8-0.4,5-5.1,7-8c1.1-1.5-2.5-0.3-2.9-2c5.6,0.7,11.3,1.3,16.9,2c-1.7,3.8-4.9,6.6-7,10.1
	c-3.1,2-6.3-0.3-9.5,0.4c-1.5-0.2-3-0.4-4.3-1.2C239.7,149,239.6,148.6,239.9,148.1z"/>
<path fill="#BABABA" d="M249,221.1c1.2-1,1.7-4.7,4.1-1.1c-0.4,1.8,0.1,4.1-2.1,5.1C249.4,224.2,249.3,222.6,249,221.1z"/>
<path fill="#0C7493" d="M255,234c-4.2,3.6-8.3,1.3-12.4-0.3c-1.2-0.4-2-1.7-0.8-2.8c2.2-2,5.1-1.2,7.5-0.7
	C251.5,230.7,255.2,229.8,255,234C255,234,255,234,255,234z"/>
<path fill="#111C2E" d="M271.7,177.2c4.2-0.3,8.3-0.4,13.1,1.5C279.8,179.8,275.8,178.3,271.7,177.2z"/>
<path fill="#031528" d="M208.8,216.1c0.1,1.3,0.1,2.6,0.2,3.8c-0.6,2.7,0.9,5.6-1,8.1c0-0.3,0-0.7,0-1c-5.1-3.8-11.4-3.1-17.1-4.5
	c-3.2-0.8-6.5-1.2-9.8-1.6c-1.7-0.2-3.4-0.6-3.1-2.9l0,0c2.8-4.6,6.3-5.8,11.8-4.1C195.9,215.8,202.3,217.6,208.8,216.1z"/>
<path fill="#0B213D" d="M208.8,216.1c-2.2,3-5.5,2.3-8.1,1.7c-4.6-1.1-9.4-1.2-13.8-3.2c-2.3-1.1-4.5-0.9-5.7,1.9
	c-0.6,1.5-1.9,1.6-3.3,1.6c-1.2-3-3.4-5.6-4-8.9c9.3,1.6,18.7,3.3,28,4.9C204.4,214.4,206.9,214.4,208.8,216.1z"/>
<path fill="#0B213D" d="M178,218c2.8,3.3,6.9,2.2,10.4,2.9c5.6,1.2,11.2,2.1,16.8,2.9c2,0.3,3,1.1,2.7,3.2
	c-11.5-2.1-22.9-4.3-34.9-6.5C174.5,218.4,176.7,219.1,178,218z"/>
<path fill="#509BCD" d="M201.1,175c-6.2,1.3-12.2-0.2-18.1-1.9c0.1-1.5,1.3-2.2,2.4-3c0.5-0.4,1.1-0.8,1.7-1.2
	c1.7-1.3,3.6-2.4,5.8-2.5c4.8,0,9.6,0.2,14.3,1.7c0.4,0.2,0.8,0.6,1.1,1c-0.3,2.8-3,3.4-4.5,5.2C202.9,174.9,202.1,175.3,201.1,175z
	"/>
<path fill="#836AAB" d="M208,170c0-0.2,0-0.5-0.1-0.7c0.4-1.3,1.6-1.7,2.5-2.3c1.2-0.7,2.3-1.6,3.5-2.4c3.2-2.8,6.7-3.7,10.7-1.9
	c0.4,0.4,0.5,0.8,0.5,1.3c-0.7,0.6-1.4,0.8-1.7,0.6c1.2,0.4,2.9,0,4.6,0.2c1.8,0.2,3.8-0.1,4.7,2.1c-1.8,2.2-4,4-6.6,5.2
	c-2.3,1.2-4.8,0.1-7.1,0.3c-3.4-0.8-7-0.6-10.4-1.7C208.4,170.4,208.2,170.2,208,170z"/>
<path fill="#D1896B" d="M229.9,180.2c-2.1-0.2-4.2-0.3-7.2-0.5c3.1-3.5,6.1-5.8,9.5-7.5c2.3-1.4,4.5-0.4,6.6,0.5
	c0.4,0.4,0.6,0.8,0.6,1.4C237.4,177.7,234.5,180.3,229.9,180.2z"/>
<path fill="#56A755" d="M239,173.2c-2.3-0.4-4.5-0.7-6.8-1.1c2.8-3.1,5.5-6.2,9.9-7.2c1.2-0.9,2.4-1,3.8-0.6c4,2.2,4.3,3,0.9,5.6
	C244.6,171.5,242.9,175,239,173.2z"/>
<path fill="#AA3963" d="M229.9,180.2c3.7-1.1,6.2-4,9.2-6.1c3.4-0.8,6.9-2.7,9.9,0.9c-0.9,2.2-3,3.1-4.9,4.1c-1.4-0.9-2-1.9-0.9-3.6
	c-1.2,0.6-1.8,1.6-3.1,2.6c1.7-0.1,2.9,0.1,4,1c-1.5,2.7-3.8,3.2-6.7,2.6c-2.4-0.5-4.9-0.6-7.3-0.9C230,180.6,230,180.4,229.9,180.2
	z"/>
<path fill="#50A058" d="M244.1,149.9c3.3-1.9,6.5,0.5,9.8,0.2c0,0.2,0,0.5,0,0.7c-3.1,1.9-5.6,4.8-9,6.2c-3,1.6-5.6,0.8-8.1-1.3
	C237.9,152.2,240.8,150.7,244.1,149.9z"/>
<path fill="#CDC1BD" d="M246.1,165.1c-1.3-0.1-2.6-0.2-4-0.3c0.3-2.3,2.4-2.8,3.9-3.9c2.5,2.1,2-2.1,3.6-1.6
	c0.2,2.9,3.1,4.5,4.7,2.1c3-4.5,4.5-0.8,6.6,0.5c0,2.6-2.1,2.5-3.7,2.7c-2.6,0.2-5.1,0.9-7.7,1.1
	C248.4,165.3,247.2,165.7,246.1,165.1z"/>
<path fill="#6C8BA6" d="M202.9,173.8c1.2-1.9,3.1-2.9,5.1-3.8c0,0,0.3,0.1,0.3,0.1c4.1,1.3,8.5,1.3,12.7,1.9c1.5,0,2.9-0.1,4.1,1.1
	c-1.4,1-2.7,2-4.1,3.1C214.7,177.2,208.7,176.2,202.9,173.8z"/>
<path fill="#B55B7D" d="M202.9,173.8c6.1,0,12.1,1.4,18.1,2.4c-1.4,2.2-3.1,2.9-5.8,2.1c-4.6-1.4-9.8-0.1-14-3.3
	C201.7,174.6,202.3,174.2,202.9,173.8z"/>
<path fill="#4F8AC3" d="M237.2,155c2.3,1.6,5,1.7,7.7,2c-0.9,2.1-3,2.9-4.8,4c-0.4,0.3-0.8,0.3-1.2,0.2c-1-1.7-2.8-1-4.2-1.5
	c-0.4-0.2-0.7-0.5-1-0.9c0.6-1.5-2.3-3.1,0.1-4.6C235.1,153.9,236.3,153.9,237.2,155z"/>
<path fill="#4583BD" d="M239.1,161c0.3,0,0.7,0,1,0c-1.3,2.5-4,2.8-6.2,3.9c-0.2-0.1-0.4-0.1-0.6-0.2c-1.6-1-4.4-0.2-4.7-3.2
	c1.1-2.1,2.6-3.7,5.3-2.8c0.1,0.2,0.3,0.3,0.5,0.5C235.7,160.6,237.9,159.3,239.1,161z"/>
<path fill="#17181F" d="M186,171c-1,0.7-2,1.4-3,2.2c-1.6,0.8-3.2,1.1-5,0.4c0-1.3,2.3-2.1,0.8-3.6c-0.2-0.2-0.3-0.5-0.2-0.6
	c0.1-0.2,0.2-0.3,0.3-0.3c0.7-0.1,1.5-0.2,2.2-0.2C183.4,168.2,185.4,168,186,171z"/>
<path fill="#9F8DBB" d="M232.7,166.8c-3.5-1.4-7.4-0.3-10.7-2.3c0.8-0.9,2-0.2,3-0.5c3.2-1.8,6,0.1,8.9,1.1c0,0,0,0,0,0
	C233.5,165.6,233.1,166.2,232.7,166.8z"/>
<path fill="#B3C3D1" d="M225.1,173.1c-1.7-0.1-3.4-0.1-5.1-0.2c-0.7-0.3-1.1-0.8-0.9-1.6c2.4-0.9,4.7,0.2,7,0.6
	C225.8,172.4,225.4,172.7,225.1,173.1z"/>
<path fill="#B8B1B1" d="M249.9,165c3.2-2.6,8,0.4,11-3c1.1,0.1,2.3-0.2,3.1,1c-1.4,1.1-2.8,2.2-4.1,3.4
	C256.4,167.2,252.7,169.3,249.9,165z"/>
<path fill="#8D3C8E" d="M249.9,165c3.1,2.1,6.7,0.5,9.9,1.3c-0.7,0.8-1.3,1.7-2,2.5c-3,2.1-5.9,4.1-8.9,6.2c-3.2-1.1-6.5-1-9.9-0.9
	c0-0.3-0.1-0.6-0.1-0.8c4-0.4,6.2-3.6,8.8-5.9c1.9-1.7-1.5-1.1-1.7-2.2C247.4,165.1,248.7,165,249.9,165z"/>
<path fill="#7159A1" d="M214.1,153.9c-1.2-0.5-2.3-0.9-3.6-1.4c1.7-2.7,5.2-3.5,6.6-6.3c0.6,0,1.2-0.1,1.8-0.1
	c3.8,2.3,8.4-0.4,12.2,1.9c-0.8,1.1-2.1,1.2-3.3,1.3c-2,0-4,0.1-5.7,1.6c-1.8,0.8,0.1,3.6-2.2,4.1
	C217.8,155.4,215.8,155.6,214.1,153.9z"/>
<path fill="#5D587F" d="M208.8,139.4c2.9-1.7,4.8-1.7,6.6-0.7c0.5,0.3,0.1,1.2-0.5,1.7C212.8,141.8,211.4,140,208.8,139.4z"/>
<path fill="#7D68AA" d="M221,154c-1.5-1.3-2-2.6-0.2-4c2.4,0.6,4.1-0.8,5.9-1.9c1.4-0.1,2.8-0.1,4.3-0.2c2.9,0,5.9,0.1,8.8,0.1
	c0,0.2,0.1,0.5,0.1,0.7c-3.7,1.9-7.4,3.9-10.6,6.7c-1.1,0.6-2.2,1.1-3.4,1.1C224.1,156.1,222.2,155.8,221,154z"/>
<path fill="#28A1AE" d="M221,154c1.7,0.6,3.7,0.5,5,1.9c-1.1,3.3-4,4.6-6.8,5.9c-1.8,0-3.8,0.9-5.3-0.9c-3.9-2.4,0.1-4.7,0.1-7.1
	C216.4,153.9,218.7,153.9,221,154z"/>
<path fill="#91959B" d="M202,159c0.3-0.1,0.6-0.1,0.8,0c2.7,2,5.9,2.2,9.1,2.1c1.1,1.1,3.2-0.4,4,1.2c0.6,1.3-0.8,1.9-1.8,2.5
	c-3.5,0.9-7.2,0.9-10.7,1.3c-2.7,0.2-5.6,0.7-7.4-2.2C197.3,161.3,200.2,160.9,202,159z"/>
<path fill="#605695" d="M214.1,164.1c3.1-3.7-2.7-1.2-2.1-3c0.7,0,1.4-0.1,2-0.1c1.9-0.1,3.9-0.1,5.8-0.2c1.9,0.2,4-0.5,5.3,1.5
	c-0.1,0.2-0.1,0.5-0.2,0.7c-4-0.3-8-0.3-11.1,3C213.4,165.3,213.4,164.7,214.1,164.1z"/>
<path fill="#B4CFD1" d="M208.7,147.2c-1.4,2.2-3,1.9-4.7,1.6C205.6,146.8,205.6,146.8,208.7,147.2z"/>
<path fill="#48A057" d="M196,163.8c2.5,1.1,5.2,1.3,7.9,1.2c1.7-0.1,3.4,0.6,5.2,0.3c1.4-0.2,3,0.6,1.7,2.6c-1,0.4-1.9,0.9-2.9,1.3
	c-5.2-0.7-10.4-1.5-15.6-2.2c-0.8-0.2-0.9-0.4-0.1-0.9C193.3,165.1,194.3,164,196,163.8z"/>
<path fill="#5F95AE" d="M186,171c-1.2-1.7-3.4-1.1-4.8-2.2c-1.7-0.5-3.5-0.9-5.2-1.4c0.9-1.3-3.5-0.6-1-2.6c1,0.1,2,0.2,3,0.3
	c2.3,0.7,4.8,0.6,7.1,1.7c1.5,0.7,3.2,1.2,1.9,3.5C186.7,170.5,186.3,170.7,186,171z"/>
<path fill="#315F8B" d="M187,170.2c-1.3-4.7-6.3-2.9-9-5.1c4.7,0.4,9.5,0.7,14.2,1.1c0,0.3,0,0.6,0.1,0.9
	C190.5,168.1,188.8,169.1,187,170.2z"/>
<path fill="#C8B0C8" d="M190.9,160.6c-1.3,1.9-2.6,2.5-4.2,2c-0.3-0.1-0.7-1-0.5-1.2C187.2,159.8,188.8,159.8,190.9,160.6z"/>
<path fill="#877559" d="M179,169c0,0.3-0.1,0.6-0.1,0.9c-2.4,0.3-4.8,0.7-7.3,1C173.7,168,176.5,169.2,179,169z"/>
<path fill="#68A8D3" d="M229.1,154.8c2.9-3.3,6-6.3,10.9-6c1.4,0.4,3-0.3,4.1,1.1c-2.3,1.7-4.6,3.4-6.9,5.1c-1.4,0-2.9,0-4.3,0
	C231.6,156.1,230.3,156.2,229.1,154.8z"/>
<path fill="#BBC6CC" d="M219.1,171.4c0.3,0.5,0.6,1.1,0.9,1.6c-3.8-1.4-8.5,0.7-11.7-2.8C211.9,169.7,215.6,170.1,219.1,171.4z"/>
<path fill="#5A675D" d="M210.8,167.9c-1.1-3.8-5.1-0.8-6.9-3c3.4-0.7,6.7-1.2,10.2-0.9c-0.1,0.6-0.1,1.3-0.2,1.9
	C212.9,166.6,211.8,167.3,210.8,167.9z"/>
<path fill="#605695" d="M234,165c-3-0.4-6-0.7-8.9-1.1c0-0.3-0.1-0.6-0.1-0.9c0,0,0,0,0,0c1.1-1.1,2.4-1.7,3.9-1.1
	C229.9,164.1,233.8,161.6,234,165z"/>
<path fill="#C9DBC7" d="M238.3,168.7c2-2,3.8-2,5.9-1.3C243.2,171.3,240.7,168.9,238.3,168.7z"/>
<path fill="#C3778F" d="M244,179c-2.2-0.3-4.5,0.5-7.4-1.1c3.6-0.2,5.1-5.1,9.2-2C243.7,176.2,242.5,177,244,179
	C244,179.1,244,179,244,179z"/>
<path fill="#ABCFA8" d="M248.9,151.4c-0.6,2.2-1.9,2.9-3.7,2.6c-0.7-0.1-1.3-0.7-0.9-1.3C245.3,151.1,246.8,150.8,248.9,151.4z"/>
<path fill="#924192" d="M228.9,161.9c-1.2,0.8-2.5,1.2-3.9,1.1c-1.2-1.9-4,0-5.2-2.2c2.1-1.6,4.2-3.3,6.3-4.9c1-0.4,2-0.7,3-1.1
	c1.3,0.1,2.5,0.2,3.8,0.2c2.1,0.8,3.4,1.8,1,3.8C232.2,159.8,230.6,160.9,228.9,161.9z"/>
<path fill="#D0D8DD" d="M239.1,161c-1.6-0.5-4.1,1.3-4.8-1.7C235.8,160.3,239.3,155.5,239.1,161z"/>
<path fill="#BB94BB" d="M248.3,170.4c0.8-3.1,2.8-2.6,4.8-2.1c0.3,0.1,0.6,0.9,0.5,1.1C252.2,171.9,250,169.5,248.3,170.4z"/>
<path fill="#B4AAC5" d="M226.8,148.1c-1.2,3.2-3.1,3.8-5.9,1.9C222.7,148.8,224.5,147.5,226.8,148.1z"/>
<path fill="#BACDDB" d="M234.2,152.6c1.7-1.9,3.1-2.8,5.4-2.2C238.5,152.5,237,153.2,234.2,152.6z"/>
<path fill="#BD92BB" d="M225,159.4c2-2.6,3.9-2.8,6.4-2C230,160.1,228,160.4,225,159.4z"/>
</svg>
