<?xml version="1.0" encoding="utf-8"?>
<!-- Generator: Adobe Illustrator 21.0.0, SVG Export Plug-In . SVG Version: 6.00 Build 0)  -->
<svg version="1.1" id="图层_1" xmlns="http://www.w3.org/2000/svg" xmlns:xlink="http://www.w3.org/1999/xlink" x="0px" y="0px"
	 viewBox="0 0 480 600" enable-background="new 0 0 480 600" xml:space="preserve">
<path fill="#FEFEFE" d="M316.3,501.1c-85.1,0-170.1,0-255.2,0.1c-2.6,0-3.4-0.3-3.4-3.2c0.1-133.7,0.1-267.4,0-401.1
	c0-2.5,0.6-3.1,3.1-3.1c119.6,0.1,239.2,0.1,358.8,0c3,0,3.2,0.8,3.2,3.4c-0.1,99.4-0.1,198.8-0.1,298.2c-2.3-0.4-1.7-2.4-2-3.8
	c-2.7-17.4-9.4-33-20.7-46.5c-16.3-19.4-36.8-31.1-62.2-34c-26.4-3.1-50.1,3.8-70.6,20.3c-19.9,16.1-31.7,37-34.6,62.7
	c-3.1,27.1,4.2,51.3,21.6,72.1c14.6,17.4,33.3,28.2,55.7,32.4C312.2,499,315.1,498.1,316.3,501.1z"/>
<path fill="#333333" d="M316.3,501.1c-5.3-1.3-10.7-2.3-15.9-3.8c-43.4-12.6-72-53-69.3-98.1c2.6-44,35.5-80.8,79.3-88.4
	c54.1-9.5,105.4,28.6,111.6,83c0.1,0.6-0.1,1.4,0.7,1.7c0,7,0,14.1,0,21.1c-0.8,9.6-3.2,18.9-7.2,27.7
	c-10.4,22.8-26.9,39.3-49.7,49.7c-9.1,4.1-18.5,6.5-28.5,7.2C330.4,501.1,323.4,501.1,316.3,501.1z"/>
<path fill="#FEFEFE" d="M337.5,501.1c5.2-1.2,10.4-2,15.5-3.6c38.7-12.3,61.6-38.6,69-78.5c0.2-0.8-0.3-2,0.9-2.4
	c0,27.2,0,54.5,0.1,81.7c0,2.4-0.5,2.9-2.9,2.9C392.5,501,365,501.1,337.5,501.1z"/>
<path fill="#333333" d="M258.1,284.6c15.5,4.8,30.6,10.1,45.8,17c-4.7,1.5-8.8,2.8-12.9,4.3c-41.2,14.9-69,53.8-69.6,97.4
	c0,2.8-0.7,3.6-3.5,3.6c-47.3-0.1-94.5-0.1-141.8-0.1c-9.7,0-17.8-7.7-17.3-17.2c1.1-19.1,5.3-37.5,16.9-53.3
	c8.7-11.8,20.3-20.1,33-27.1c19.1-10.4,39.5-17.5,60.1-23.9c3-0.9,2.7,0.6,2.7,2.5c0.7,20.8,16.1,37.7,36.5,40.2
	c22.7,2.8,42.6-9.4,48.5-29.7C257.8,293.9,257.9,289.5,258.1,284.6z"/>
<path fill="#333333" d="M133.4,178.1c0-44.3,30.5-78.6,70.7-82.7c35.2-3.6,62.8,9.4,81.5,39.6c10.1,16.4,12.2,34.5,9.4,53.3
	c-4.7,31.1-16.6,59.2-36,84c-5.5,7.1-11.9,13.3-19.3,18.4c-17,11.8-34.1,11.3-51.3,0.7c-12.7-7.9-22-19.1-29.6-31.8
	C142.8,233.3,134.5,204.6,133.4,178.1z"/>
<path fill="#FEFEFE" d="M338.3,374.2c0,12.5,0,24.9,0,37.4c0,6-2.1,8.2-8,8.2c-17.5,0-34.9,0-52.4,0c-5.8,0-7.9-2.3-7.9-8.3
	c0-5.6,2.3-7.9,7.9-7.9c13.4,0,26.8-0.1,40.2,0.1c3.1,0,4.1-0.6,4-3.9c-0.2-20.9-0.1-41.7-0.1-62.6c0-6.2,2.2-8.4,8.2-8.4
	c6,0,8.1,2.2,8.1,8.5C338.3,349.6,338.3,361.9,338.3,374.2C338.3,374.2,338.3,374.2,338.3,374.2z"/>
<path fill="#FEFEFE" d="M163.4,158.7c-5.5,11.3-6.6,22-2.9,34.1c7.5-14.9,16.4-27.7,31.1-37.3c-9,15.5-11.3,30.9-7.8,48.3
	c2.8-4.5,5-8.2,7.2-11.8c8.5-13.8,18.1-26.6,31.4-36.3c2.6-1.9,4.9-2.6,8.2-1.8c8.5,2.2,17,4.5,25,8.2c9.1,4.2,18.6,6.5,28.6,6.9
	c2.3,0.1,3.3,0.7,3.2,3.3c-2,38.4-15.6,71.7-43.9,98.1c-21.5,20-45.3,14.8-63.6-1.2c-18.6-16.2-28.5-37.7-34.9-61
	c-1-3.5-1.5-7.2-2.5-10.7c-2.7-9.4-0.1-17.5,5.4-25.2C151.8,166.8,156.5,162.1,163.4,158.7z"/>
</svg>
